<svg xmlns="http://www.w3.org/2000/svg" version="1.1" xmlns:xlink="http://www.w3.org/1999/xlink" width="512" height="512" x="0" y="0" viewBox="0 0 64 64" style="enable-background:new 0 0 512 512" xml:space="preserve" class=""><g><path d="M58 37H24a1 1 0 1 0 0 2h36.908c.282 0 .542.113.733.318s.285.474.265.755c-.28 3.868-1.499 13.48-6.761 19.188C53.54 61.002 51.181 62 48.674 62H15.326c-2.507 0-4.866-.998-6.471-2.739-5.262-5.707-6.481-15.319-6.761-19.188-.021-.281.074-.55.265-.755S2.81 39 3.092 39H9v11c0 1.103.897 2 2 2h9c1.103 0 2-.897 2-2V37c0-1.103-.897-2-2-2h-9c-1.103 0-2 .897-2 2H3.092c-.831 0-1.632.349-2.197.956S.04 39.388.1 40.218c.295 4.077 1.595 14.228 7.285 20.398C9.367 62.767 12.262 64 15.326 64h33.348c3.064 0 5.959-1.233 7.942-3.384 5.69-6.171 6.99-16.321 7.285-20.398.06-.83-.23-1.654-.795-2.262-.032-.034-.072-.059-.105-.092V27c0-1.654-1.346-3-3-3H50a1 1 0 0 0-1 1v3a1 1 0 0 0 1 1v2a1 1 0 0 0 1 1h4a1 1 0 0 0 1-1v-2h2zm-47 0h9l.001 13H11zm43-7h-2v-1h2zm1-3h-4v-1h9c.551 0 1 .448 1 1v10h-1v-8c0-1.103-.897-2-2-2zM63 2h-4c0-1.103-.897-2-2-2H42c-1.103 0-2 .897-2 2h-4a1 1 0 0 0-1 1v4a1 1 0 0 0 1 1h2a1 1 0 1 0 0-2h-1V4h3v16c0 1.103.897 2 2 2h15c1.103 0 2-.897 2-2V8h4a1 1 0 0 0 1-1V3a1 1 0 0 0-1-1zM42 20V2h15v5.002L57.001 20zM62 6h-3V4h3z" fill="#127dc4" opacity="1" data-original="#000000"></path><path d="M1 29h34a1 1 0 0 0 1-1v-4a1 1 0 0 0-1-1h-3.833l.793-2.72A.999.999 0 0 0 31 19h-.051c.033-.162.051-.329.051-.5v-1c0-1.379-1.122-2.5-2.5-2.5h-2a2.503 2.503 0 0 0-2.5 2.5v1c0 .171.018.338.051.5H24a1 1 0 0 0-.96 1.28l.793 2.72H22v-5c0-1.103-.897-2-2-2h-5c-1.103 0-2 .897-2 2v5h-1.144c0-.083.006-.165-.005-.248l-.75-6A2.001 2.001 0 0 0 9.117 15H9v-3a1 1 0 0 0-1-1H6a1 1 0 1 0 0 2h1v2h-.117c-1.006 0-1.86.753-1.984 1.752l-.75 6c-.011.083-.005.165-.005.248H1a1 1 0 0 0-1 1v4a1 1 0 0 0 1 1zm25-10.5v-1c0-.271.229-.5.5-.5h2c.271 0 .5.229.5.5v1c0 .271-.229.5-.5.5h-2a.507.507 0 0 1-.5-.5zm-.667 2.5h4.334l-.583 2h-3.167zM20 18v1h-5v-1zm-5 3h5.001l.001 2H15zm-8.117-4h2.234l.75 6H6.133zM2 25h32v2H2z" fill="#127dc4" opacity="1" data-original="#000000"></path></g></svg>