<svg xmlns="http://www.w3.org/2000/svg" version="1.1" xmlns:xlink="http://www.w3.org/1999/xlink" width="512" height="512" x="0" y="0" viewBox="0 0 512 512" style="enable-background:new 0 0 512 512" xml:space="preserve" class=""><g><path d="M494.933 221.867h-95.939l16.579-29.013c6.827-11.947 12.8-24.747 17.067-38.4 7.68-22.187 11.093-45.227 11.093-68.267V8.533c0-5.12-3.413-8.533-8.533-8.533H264.533C259.413 0 256 3.413 256 8.533v77.653c0 22.745 3.335 45.489 10.809 67.413H204.8V93.867c0-5.12-3.413-8.533-8.533-8.533h-179.2c-5.12 0-8.533 3.413-8.533 8.533v409.6c0 5.12 3.413 8.533 8.533 8.533h477.866c5.12 0 8.533-3.413 8.533-8.533V230.4c.001-5.12-3.413-8.533-8.533-8.533zm-93.866 204.8v-51.2h25.6v51.2h-25.6zM435.2 307.2h51.2v51.2h-85.333c0-6.827-.853-12.8-3.413-18.773-3.413-11.093-5.12-22.187-5.12-32.427H435.2zm8.533 68.267H486.4v51.2h-42.667v-51.2zm42.667-85.334h-42.667v-51.2H486.4v51.2zm-59.733-51.2v51.2h-31.573c.853-4.267 2.56-8.533 5.12-12.8.853 0 .853-.853.853-.853l6.827-17.92c2.56-5.973 2.56-13.653 0-19.627h18.773zm-153.6-221.866h153.6v69.12c0 21.333-3.413 41.813-10.24 62.293-4.267 12.8-9.387 24.747-16.213 35.84l-21.333 37.547h-58.027L299.52 184.32c-6.827-11.093-11.947-23.893-16.213-35.84-6.827-19.627-10.24-40.96-10.24-62.293v-69.12zM256 426.667h-51.2v-51.2h93.867v51.2H256zm-119.467 0h-51.2v-51.2h102.4v51.2h-51.2zm-110.933 0v-51.2h42.667v51.2H25.6zm51.2-256H128v51.2H25.6v-51.2h51.2zM256 238.933h35.538c-2.414 6.015-2.321 13.071.302 19.627l6.827 17.067c0 .853.853 1.707.853 1.707a56.128 56.128 0 0 1 3.808 8.023 35.643 35.643 0 0 1 1.312 4.777H204.8v-51.2H256zm8.533-68.266h8.533l1.28 2.559c2.964 6.763 6.27 13.426 9.814 19.628l16.579 29.013h-36.206v-51.2zm37.547 168.96c-2.56 5.973-3.413 12.8-3.413 18.773h-34.133v-51.2H307.2c0 9.387-1.707 20.48-5.12 32.427zM196.267 358.4h-51.2v-51.2h102.4v51.2h-51.2zm-119.467 0H25.6v-51.2H128v51.2H76.8zM25.6 238.933h42.667v51.2H25.6v-51.2zm162.133 51.2h-102.4v-51.2h102.4v51.2zm59.734-68.266h-102.4v-51.2h102.4v51.2zM187.733 153.6h-102.4v-51.2h102.4v51.2zM25.6 102.4h42.667v51.2H25.6v-51.2zm0 341.333H128v51.2H25.6v-51.2zm119.467 0h102.4v51.2h-102.4v-51.2zm119.466 0h34.133v25.6c0 .615.016 1.229.045 1.843.365 8.953 3.371 17.12 8.285 23.757h-42.464v-51.2zm51.2 25.6v-17.067H332.8c5.12 0 8.533-3.413 8.533-8.533s-3.413-8.533-8.533-8.533h-17.067v-17.067H332.8c5.12 0 8.533-3.413 8.533-8.533s-3.413-8.533-8.533-8.533h-17.067V358.4c0-4.267.853-8.533 3.413-12.8v-.853c5.12-17.92 6.827-33.28 5.12-46.933a10.5 10.5 0 0 0-1.007-2.828 77.435 77.435 0 0 0-.597-3.757c-1.428-8.037-4.325-15.513-7.783-22.429l-6.827-17.067c-1.707-3.413 0-6.826.853-8.533 2.56-2.56 5.12-4.267 8.533-4.267h65.707c2.56 0 5.973 1.707 7.68 4.267 1.707 3.413 1.707 5.973.853 9.387l-6.827 17.067c-11.093 18.773-12.8 46.08-3.413 75.947 1.707 4.267 2.56 8.533 2.56 12.8V469.333c0 13.653-11.093 25.6-25.6 25.6h-17.067c-13.651 0-25.598-11.093-25.598-25.6zm170.667 25.6h-93.867c5.12-6.827 8.533-16.213 8.533-25.6v-25.6H486.4v51.2z" fill="#127dc4" opacity="1" data-original="#000000" class=""></path></g></svg>