<svg width="16" height="17" viewBox="0 0 16 17" fill="none" xmlns="http://www.w3.org/2000/svg">
<g clip-path="url(#clip0_1_94)">
<path d="M10.8505 9.91285L8.61969 8.23973V4.83154C8.61969 4.48885 8.34268 4.21185 8 4.21185C7.65731 4.21185 7.38031 4.48885 7.38031 4.83154V8.5496C7.38031 8.74479 7.47203 8.92885 7.62818 9.04535L10.1069 10.9044C10.2184 10.988 10.3486 11.0283 10.4781 11.0283C10.6671 11.0283 10.853 10.9434 10.9744 10.7798C11.1802 10.5065 11.1244 10.118 10.8505 9.91285Z" fill="#F7F7F7"/>
<path d="M8 0.5C3.58853 0.5 0 4.08853 0 8.5C0 12.9115 3.58853 16.5 8 16.5C12.4115 16.5 16 12.9115 16 8.5C16 4.08853 12.4115 0.5 8 0.5ZM8 15.2607C4.27266 15.2607 1.23934 12.2273 1.23934 8.5C1.23934 4.77266 4.27266 1.73934 8 1.73934C11.728 1.73934 14.7607 4.77266 14.7607 8.5C14.7607 12.2273 11.7273 15.2607 8 15.2607Z" fill="#F7F7F7"/>
</g>
<defs>
<clipPath id="clip0_1_94">
<rect width="16" height="16" fill="white" transform="translate(0 0.5)"/>
</clipPath>
</defs>
</svg>
