<svg xmlns="http://www.w3.org/2000/svg" version="1.1" xmlns:xlink="http://www.w3.org/1999/xlink" width="512" height="512" x="0" y="0" viewBox="0 0 512 512" style="enable-background:new 0 0 512 512" xml:space="preserve" class=""><g><path d="M412.749 0H99.251a7.516 7.516 0 0 0-7.515 7.515V296.98a7.516 7.516 0 0 0 15.03 0V15.029h298.469V496.97h-16.958V395.38a7.516 7.516 0 0 0-15.03 0v101.59H138.753V47.017h234.494v318.305a7.515 7.515 0 1 0 15.03 0V39.502a7.516 7.516 0 0 0-7.515-7.515H131.238a7.515 7.515 0 0 0-7.515 7.515v457.469h-16.958V327.039a7.516 7.516 0 0 0-15.03 0v177.446A7.516 7.516 0 0 0 99.25 512h313.498a7.516 7.516 0 0 0 7.515-7.515V7.515A7.514 7.514 0 0 0 412.749 0z" fill="#127dc4" opacity="1" data-original="#000000" class=""></path><path d="M172.995 167.6a7.516 7.516 0 0 0-7.515 7.515v71.892a7.516 7.516 0 0 0 7.515 7.515h166.011a7.516 7.516 0 0 0 7.515-7.515V80.265a7.516 7.516 0 0 0-7.515-7.515H172.995a7.515 7.515 0 0 0-7.515 7.515v64.791a7.516 7.516 0 0 0 15.03 0V87.78h150.981v151.712H180.509v-64.378a7.514 7.514 0 0 0-7.514-7.514zM165.48 463.722a7.516 7.516 0 0 0 7.515 7.515h166.011a7.515 7.515 0 0 0 7.515-7.515V296.98a7.516 7.516 0 0 0-7.515-7.515H172.995a7.515 7.515 0 0 0-7.515 7.515zm15.029-159.227H331.49v151.712H180.509zM366.318 271.994c0-7.822-6.364-14.186-14.186-14.186-5.06 0-9.498 2.672-12.01 6.671H322.19a7.515 7.515 0 1 0 0 15.03h17.932c2.512 3.999 6.949 6.671 12.01 6.671 7.822 0 14.186-6.364 14.186-14.186z" fill="#127dc4" opacity="1" data-original="#000000" class=""></path></g></svg>