<svg xmlns="http://www.w3.org/2000/svg" version="1.1" xmlns:xlink="http://www.w3.org/1999/xlink" width="512" height="512" x="0" y="0" viewBox="0 0 611.778 611.778" style="enable-background:new 0 0 512 512" xml:space="preserve" class=""><g><path d="M10.174 611.778h591.382a10.195 10.195 0 0 0 9.809-12.99l-13.775-48.361a81.762 81.762 0 0 0-29.426-42.722l-2.62-2.039a81.32 81.32 0 0 0-48.942-16.314h-29.447a248.784 248.784 0 0 0 32.832-122.284c0-172.143-94.693-274.554-98.73-278.826a10.196 10.196 0 0 0-17.334 4.538c-5.73 23.156-14.02 33.199-19.709 37.543C362.293 62.722 304.96 12.664 235.021.064a10.194 10.194 0 0 0-9.472 16.008c40.785 57.792 41.101 152.148 15.937 200.693-6.179 11.909-16.671 26.113-31.608 26.113a34.667 34.667 0 0 1-28.162-11.083c-14.805-17.334-9.85-49.676-9.799-49.962a10.196 10.196 0 0 0-18.812-6.882c-2.467 4.15-61.361 103.461-61.361 202.314a206.92 206.92 0 0 0 32.628 112.159H95.108a81.333 81.333 0 0 0-48.942 16.314l-2.478 1.886a81.775 81.775 0 0 0-29.508 42.824L.415 598.778a10.197 10.197 0 0 0 9.759 13zm187.488-20.393 17.986-54.04a61.33 61.33 0 0 1 25.623-32.536l42.447-26.51a61.055 61.055 0 0 1 32.424-9.268h37.869a60.994 60.994 0 0 1 46.984 22.014l16.192 19.373a61.231 61.231 0 0 1 13.714 31.608l6.118 49.34zm80.724-270.588a127.196 127.196 0 0 1 72.342 71.629 10.198 10.198 0 0 0 14.122 5.343 69.58 69.58 0 0 0 24.624-22.697c9.982 23.513 22.432 61.177 17.599 93.296a81.202 81.202 0 0 0-53.061-19.73h-37.869a81.421 81.421 0 0 0-43.232 12.399l-42.457 26.51c-2.253 1.407-4.231 3.161-6.332 4.772a131.42 131.42 0 0 1-18.812-91.562c14.744 2.141 40.785 2.937 58.261-13.846 14.458-13.889 19.413-36.086 14.815-66.114zm274.901 201.254 2.61 2.039a61.342 61.342 0 0 1 22.085 32.047l10.074 35.248H457.615l-6.485-51.879a81.636 81.636 0 0 0-6.638-23.38 61.33 61.33 0 0 1 26.959-6.311h45.169a61.025 61.025 0 0 1 36.667 12.236zm-399.846-303.43a63.22 63.22 0 0 0 12.745 26.337 54.457 54.457 0 0 0 43.732 18.353c19.618 0 37.257-13.184 49.666-37.125 24.95-48.157 27.346-136.793-4.7-200.591 31.822 10.298 89.064 39.765 113.178 121.07a10.198 10.198 0 0 0 9.778 7.301c2.845 0 25.297-1.203 39.979-37.726a422.127 422.127 0 0 1 81.774 250.828 221.889 221.889 0 0 1-37.206 123.038 81.91 81.91 0 0 0-28.549 8.677c-.357-.449-.622-.938-1.02-1.376l-9.207-11.043c19.016-60.474-25.327-140.545-27.295-144.032a10.197 10.197 0 0 0-19.078 4.955 35.43 35.43 0 0 1-12.786 25.898 149.701 149.701 0 0 0-97.456-77.247 10.198 10.198 0 0 0-11.909 12.439c7.617 30.874 5.669 52.949-5.608 63.849-16.477 15.896-49.36 6.791-49.676 6.709a10.09 10.09 0 0 0-8.157 1.081 10.194 10.194 0 0 0-4.7 6.74 151.567 151.567 0 0 0 22.432 119.847 82.466 82.466 0 0 0-6.057 9.177l-15.723-11.216a81.802 81.802 0 0 0-38.063-14.407 188.526 188.526 0 0 1-37.4-112.893c.001-59.995 24.044-121.927 41.306-158.643zM33.737 556.116a61.477 61.477 0 0 1 22.156-32.118l2.488-1.876a61.008 61.008 0 0 1 36.727-12.307h45.169a61.446 61.446 0 0 1 35.564 11.348l19.169 13.704-18.843 56.518H23.673z" fill="#127dc4" opacity="1" data-original="#000000" class=""></path></g></svg>