<svg width="32" height="32" viewBox="0 0 32 32" fill="none" xmlns="http://www.w3.org/2000/svg">
<g id="call ">
<path id="Vector" d="M25.92 17.3333C25.6267 17.3333 25.32 17.24 25.0267 17.1733C24.4327 17.0424 23.8489 16.8686 23.28 16.6533C22.6615 16.4283 21.9815 16.44 21.3711 16.6861C20.7606 16.9323 20.2628 17.3955 19.9733 17.9867L19.68 18.5867C18.3813 17.8642 17.188 16.967 16.1333 15.92C15.0864 14.8654 14.1891 13.672 13.4667 12.3733L14.0267 12C14.6178 11.7106 15.0811 11.2127 15.3272 10.6023C15.5734 9.9918 15.585 9.31188 15.36 8.69333C15.1483 8.12323 14.9746 7.53973 14.84 6.94667C14.7733 6.65333 14.72 6.34667 14.68 6.04C14.5181 5.10083 14.0262 4.25032 13.2928 3.64165C12.5595 3.03298 11.6329 2.70615 10.68 2.72H6.68001C6.10539 2.7146 5.53635 2.83308 5.01163 3.06737C4.4869 3.30166 4.01883 3.64626 3.63925 4.07771C3.25968 4.50916 2.97753 5.01732 2.812 5.56762C2.64647 6.11791 2.60145 6.69741 2.68001 7.26667C3.39033 12.8525 5.94138 18.0425 9.93022 22.0168C13.919 25.9912 19.1183 28.5233 24.7067 29.2133H25.2133C26.1966 29.2148 27.1459 28.854 27.88 28.2C28.3018 27.8227 28.6388 27.3602 28.8686 26.8431C29.0985 26.3259 29.216 25.7659 29.2133 25.2V21.2C29.197 20.2738 28.8598 19.3821 28.2591 18.6769C27.6585 17.9717 26.8318 17.4968 25.92 17.3333ZM26.5867 25.3333C26.5864 25.5226 26.5459 25.7097 26.4677 25.8822C26.3896 26.0546 26.2756 26.2084 26.1333 26.3333C25.9848 26.4627 25.8106 26.5592 25.6222 26.6167C25.4338 26.6741 25.2354 26.6911 25.04 26.6667C20.0465 26.0264 15.4083 23.742 11.857 20.1737C8.30561 16.6055 6.04323 11.9564 5.42668 6.96C5.40546 6.76469 5.42406 6.56711 5.48135 6.37919C5.53864 6.19127 5.63344 6.01692 5.76001 5.86667C5.88496 5.72444 6.03876 5.61045 6.21118 5.53229C6.38361 5.45412 6.5707 5.41357 6.76001 5.41333H10.76C11.0701 5.40643 11.3728 5.50784 11.6162 5.70009C11.8596 5.89235 12.0283 6.16343 12.0933 6.46667C12.1467 6.83111 12.2133 7.19111 12.2933 7.54667C12.4474 8.24953 12.6524 8.94024 12.9067 9.61333L11.04 10.48C10.8804 10.5532 10.7368 10.6573 10.6176 10.7861C10.4983 10.915 10.4056 11.0662 10.3449 11.2309C10.2842 11.3957 10.2566 11.5708 10.2638 11.7463C10.271 11.9218 10.3127 12.0941 10.3867 12.2533C12.3056 16.3637 15.6097 19.6677 19.72 21.5867C20.0446 21.72 20.4087 21.72 20.7333 21.5867C20.8996 21.5272 21.0524 21.4353 21.1829 21.3162C21.3134 21.1972 21.4189 21.0535 21.4933 20.8933L22.32 19.0267C23.0093 19.2732 23.7128 19.478 24.4267 19.64C24.7822 19.72 25.1422 19.7867 25.5067 19.84C25.8099 19.9051 26.081 20.0738 26.2733 20.3171C26.4655 20.5605 26.5669 20.8633 26.56 21.1733L26.5867 25.3333Z" fill="white"/>
</g>
</svg>
