<svg xmlns="http://www.w3.org/2000/svg" version="1.1" xmlns:xlink="http://www.w3.org/1999/xlink" width="512" height="512" x="0" y="0" viewBox="0 0 512 512" style="enable-background:new 0 0 512 512" xml:space="preserve" class=""><g><path d="M471.982 417.008Q472 416.5 472 416a32.036 32.036 0 0 0-32-32V236l28.8-21.6a8 8 0 0 0-.08-12.859L400 151.322V64a8 8 0 0 0 8-8V24a8 8 0 0 0-8-8h-80a8 8 0 0 0-8 8v32a8 8 0 0 0 8 8v28.861l-59.28-43.32a8 8 0 0 0-9.44 0l-208 152a8 8 0 0 0-.08 12.859L72 236v148a32.036 32.036 0 0 0-32 32q0 .5.018 1.008A32 32 0 0 0 48 480h416a32 32 0 0 0 7.982-62.992ZM328 32h64v16h-64Zm8 72V64h48v75.63L335.243 104Zm-80-38.092 194.555 142.176-18.628 13.971L260.706 97.53a8 8 0 0 0-9.412 0L80.073 222.055l-18.628-13.971ZM32 448a16.019 16.019 0 0 1 15.76-16h.019c.409.057.818.106 1.235.133a8 8 0 0 0 8.023-10.716A15.727 15.727 0 0 1 56 416a16.019 16.019 0 0 1 16-16v64H48a16.019 16.019 0 0 1-16-16Zm344 16h-96V288h96Zm16 0V280a8 8 0 0 0-8-8H272a8 8 0 0 0-8 8v184H88V236.074l168-122.182 168 122.182V464Zm72 0h-24v-64a16.019 16.019 0 0 1 16 16 15.727 15.727 0 0 1-1.037 5.421 8 8 0 0 0 8.023 10.716c.417-.027.826-.076 1.235-.133h.019a16 16 0 0 1-.24 32Z" fill="#025b97" opacity="1" data-original="#000000" class=""></path><path d="M224 272h-96a8 8 0 0 0-8 8v112a8 8 0 0 0 8 8h96a8 8 0 0 0 8-8V280a8 8 0 0 0-8-8Zm-8 56h-32v-40h32Zm-48-40v40h-32v-40Zm-32 56h32v40h-32Zm48 40v-40h32v40Z" fill="#025b97" opacity="1" data-original="#000000" class=""></path><circle cx="304" cy="368" r="8" transform="rotate(-67.5 304 368)" fill="#025b97" opacity="1" data-original="#000000" class=""></circle></g></svg>