<svg xmlns="http://www.w3.org/2000/svg" version="1.1" xmlns:xlink="http://www.w3.org/1999/xlink" width="512" height="512" x="0" y="0" viewBox="0 0 128 128" style="enable-background:new 0 0 512 512" xml:space="preserve"><g><path d="M35 41.027H21a4.006 4.006 0 0 0-4 4.002v10.007a4.006 4.006 0 0 0 4 4.002h14a4.006 4.006 0 0 0 4-4.002V45.029a4.006 4.006 0 0 0-4-4.002Zm-9 14.009h-5V45.029h5Zm4 0V45.029h5l.002 10.007ZM107 41.027H93a4.006 4.006 0 0 0-4 4.002v10.007a4.006 4.006 0 0 0 4 4.002h14a4.006 4.006 0 0 0 4-4.002V45.029a4.006 4.006 0 0 0-4-4.002Zm-9 14.009h-5V45.029h5Zm4 0V45.029h5l.002 10.007Z" fill="#127dc4" opacity="1" data-original="#000000"></path><path d="M126 115.992h-3V32.021h3a2.001 2.001 0 0 0 1.708-3.041L111.846 2.883A6.036 6.036 0 0 0 106.719 0H21.281a6.035 6.035 0 0 0-5.126 2.884L.291 28.98A2.001 2.001 0 0 0 2 32.02h3v83.972H2a2 2 0 0 0-2 2.001V126A2 2 0 0 0 2 128h124a2 2 0 0 0 2-2.001v-8.006a2 2 0 0 0-2-2ZM10.424 20.012H40a2.001 2.001 0 0 0 0-4.002H12.857l2.433-4.002H45a2.001 2.001 0 0 0 0-4.003H17.724l1.848-3.04a2.011 2.011 0 0 1 1.709-.962h85.438a2.012 2.012 0 0 1 1.709.96l1.849 3.042H83a2.001 2.001 0 0 0 0 4.003h29.71l2.433 4.002H88a2.001 2.001 0 0 0 0 4.003h29.576l4.866 8.005H84.435L65.238 12.881a1.998 1.998 0 0 0-2.476 0L43.565 28.018H5.558Zm93.638 87.558h8.375a2 2 0 0 0 2-2.002V99.19H119v16.803H97.5V99.19h4.563v6.38a2 2 0 0 0 2 2Zm2-4.003V99.19h4.375v4.378Zm.938-8.505v-8.006h12v8.006Zm-2-12.008a2 2 0 0 0-2 2.001v10.132h-7.5a2 2 0 0 0-2 2.001v2.877h-13a2 2 0 0 0-2 2.001v6.004H75a2 2 0 0 0-2 2.001v5.921H61v-7.922a2 2 0 0 0-2-2.001h-8v-8.005a2 2 0 0 0-2-2.002h-8v-8.005a2 2 0 0 0-2-2.001h-8V78.05a2 2 0 0 0-2-2.002h-8v-6.004h37v5.299a7 7 0 1 0 4 0v-5.299h21v7.005h-8a2.001 2.001 0 0 0 0 4.003h20a2.001 2.001 0 0 0 0-4.003h-8v-7.005h32v13.009ZM82.5 108.07v-4.003h11v4.003Zm11 4.003v3.92H77v-3.92h16.5ZM19 80.052h8v8.005a2 2 0 0 0 2 2.001h8v8.006a2 2 0 0 0 2 2h8v8.006a2 2 0 0 0 2 2.001h8v5.921H9V70.045h8v8.006a2 2 0 0 0 2 2Zm38-14.01V42.028h5v24.016Zm3 13.01a3.002 3.002 0 1 1-3 3.001 3.004 3.004 0 0 1 3-3.002Zm6-13.01V42.028h5v24.016Zm9 0V42.028a4.006 4.006 0 0 0-4-4.002H57a4.006 4.006 0 0 0-4 4.002v24.016H9V32.02h35.258a2.002 2.002 0 0 0 1.238-.43L64 17.002l18.504 14.59a2.002 2.002 0 0 0 1.238.43H119v34.022Zm49 57.955H4v-4.002h120Z" fill="#127dc4" opacity="1" data-original="#000000"></path></g></svg>