<svg xmlns="http://www.w3.org/2000/svg" version="1.1" xmlns:xlink="http://www.w3.org/1999/xlink" width="512" height="512" x="0" y="0" viewBox="0 0 64 64" style="enable-background:new 0 0 512 512" xml:space="preserve" class=""><g><g data-name="Street Lamp"><path d="M16.33 16.62a3.05 3.05 0 0 0 2.18 2.92l3.18 20.07a3.05 3.05 0 0 0 1.14 5.89h2v1.18A3.18 3.18 0 0 0 28 49.86h1.3v4.42a2.72 2.72 0 0 0 5.44 0v-4.42H36a3.18 3.18 0 0 0 3.18-3.18V45.5h2a3.05 3.05 0 0 0 1.14-5.89l3.18-20.07a3 3 0 0 0-.39-5.93L41 9a5.25 5.25 0 0 0-3.78-2h-10.4A5.25 5.25 0 0 0 23 9l-4.1 4.61a3.05 3.05 0 0 0-2.57 3.01zM43 22.26H21l-.41-2.58h22.85zm-6.82 17.13v-6.08a4.18 4.18 0 1 0-8.36 0v6.08h-4.14l-2.4-15.13h21.44l-2.4 15.13zm-6.36 0v-6.08a2.18 2.18 0 1 1 4.36 0v6.08zm2.9 14.89a.72.72 0 0 1-1.44 0v-4.42h1.44zm4.48-7.6a1.18 1.18 0 0 1-1.2 1.18h-8a1.18 1.18 0 0 1-1.18-1.18V45.5H37.2zm4-3.18H22.83a1.06 1.06 0 1 1 0-2.11h18.34a1.06 1.06 0 1 1 0 2.11zm3.44-25.82H19.38a1.06 1.06 0 0 1 0-2.12h25.23a1.06 1.06 0 1 1 0 2.12zm-20.11-7.31A3.21 3.21 0 0 1 26.82 9h10.36a3.21 3.21 0 0 1 2.29 1.37l2.89 3.19H21.64zM7 29.53a1 1 0 0 0 1 1h4a1 1 0 1 0 0-2H8a1 1 0 0 0-1 1zM56 28.53h-4a1 1 0 0 0 0 2h4a1 1 0 0 0 0-2zM9.15 39.68a1 1 0 0 0 .91.59 1 1 0 0 0 .41-.09l3.68-1.63a1 1 0 1 0-.81-1.83l-3.68 1.64a1 1 0 0 0-.51 1.32zM54.85 19.39a1 1 0 0 0-1.32-.51l-3.68 1.64a1 1 0 0 0 .4 1.91 1 1 0 0 0 .41-.08l3.68-1.64a1 1 0 0 0 .51-1.32zM14.66 21.84a1 1 0 0 0-.51-1.32l-3.68-1.64a1 1 0 0 0-1.32.51 1 1 0 0 0 .51 1.32l3.68 1.64a1 1 0 0 0 .41.08 1 1 0 0 0 .91-.59zM54.34 38.36l-3.68-1.64a1 1 0 0 0-.81 1.83l3.68 1.63a1 1 0 0 0 .41.09 1 1 0 0 0 .4-1.91z" fill="#127dc4" opacity="1" data-original="#000000" class=""></path></g></g></svg>