<?xml version="1.0" encoding="UTF-8"?>
<svg xmlns="http://www.w3.org/2000/svg" version="1.1" viewBox="0 0 1227.2 549.1">
  <defs>
    <style>
      .cls-1 {
        fill: #eeeeef;
      }

      .cls-2 {
        fill: #161617;
      }

      .cls-3 {
        fill: #c9c9c9;
      }

      .cls-4 {
        fill: #f0f0f0;
      }

      .cls-5 {
        fill: #131313;
      }

      .cls-6 {
        fill: #303030;
      }

      .cls-7 {
        fill: #efefef;
      }

      .cls-8 {
        fill: #eee;
      }

      .cls-9 {
        fill: #232323;
      }

      .cls-10 {
        fill: #ebebeb;
      }

      .cls-11 {
        fill: #dedede;
      }

      .cls-12 {
        fill: #a5a5a5;
      }

      .cls-13 {
        fill: #e4e4e4;
      }

      .cls-14 {
        fill: #ececec;
      }

      .cls-15 {
        fill: #111112;
      }

      .cls-16 {
        fill: #040404;
      }

      .cls-17 {
        fill: #e7e7e7;
      }

      .cls-18 {
        fill: #ededed;
      }

      .cls-19 {
        fill: #bebebe;
      }

      .cls-20 {
        fill: #e9e9ea;
      }
    </style>
  </defs>
  <!-- Generator: Adobe Illustrator 28.6.0, SVG Export Plug-In . SVG Version: 1.2.0 Build 709)  -->
  <g>
    <g id="Layer_1">
      <g id="Layer_1-2" data-name="Layer_1">
        <path class="cls-20" d="M702.4,47.8c-.2,1.8-.6,4.7-1,4.7-2.6,0-6.4.3-7.7-1.2-11.3-13.3-25.3-22.6-41.8-27.8-12.2-3.9-24.8-4.8-37.5-2.2-7.3,1.5-11.3,6.2-11.3,13.7-.2,18.8,0,37.6,0,56.7,9.6,0,19.5.4,29.3-.2,4.7-.3,9.5-1.7,13.8-3.8,7-3.4,10.8-9.6,12-17.4.4-2.4.8-4.8,1.3-7.3h7.8v64.6h-6.6c-1.3-4.7-2.2-9.3-3.9-13.5-3.4-8.4-9.6-13.7-18.9-14-11.5-.3-22.9,0-34.7,0,0,0-.4.7-.4,1.3,0,19.7,0,39.3.3,59,.2,12,4.3,16.2,16.2,16.9,8.6.5,17.3.7,25.9,0,15.1-1.2,27.3-9,38.1-18.9,5.2-4.8,10.1-10.2,14.6-15.7,2.8-3.5,6.2-2.7,9.5-2.2.8.1,2,3.8,1.5,5.3-4.3,12.6-8.8,25.1-13.5,37.5-.5,1.2-2.8,2.5-4.3,2.5-36.6.1-73.3.1-109.9.1h-36.6v-7.4c4.4-.4,8.8-.8,13.3-1.2,8.5-.8,13.5-5.9,13.5-14.3,0-41.7,0-83.3,0-125,0-12-4.2-16.1-16-17.2-3.5-.3-6.9-.6-10.7-.9v-6.6h139.5c3.8,0,5.3,1,6.6,4.7,3.5,10,7.6,19.8,11.8,30M575.8,91.5v58.5c0,9.4,1.6,19.2-5.9,27.5,8.3-.7,12.1-4,13.2-11.2.5-2.9.8-6,.8-8.9V39.5c0-3.6-.5-7.3-1.5-10.8-1.5-5.1-6.8-7.5-10.6-6.4,1.3,4.3,3.6,8.5,3.7,12.8.5,18.5.4,37,.5,56.4M675.5,177.9c2.5-.5,6.5-.1,7.2-1.5,2.2-4.1,3.1-8.8,4.9-14.4-8.5,5.6-15.8,10.4-24.2,15.9h12.1M678.9,31.8c1.7,1.1,3.4,2.1,5.1,3.2-1.6-4.7-3.6-8.8-6-12.8-.6-1-2-2-3.1-2-5-.2-10,0-16,0,7.2,4.2,13.3,7.7,20,11.7M652.2,89.7c-3.1,1.8-6.1,3.5-9,5.2,4.6,3.1,9,6,13.6,9v-19.3c-1.9,2.2-2.9,3.4-4.5,5.1h0Z"/>
        <path class="cls-10" d="M919.2,72.9c9.6,11.3,19,22.3,28.4,33.3,9.3,11,18.7,21.9,28.8,33.7v-10.1c-.6-27.5-1.1-54.9-1.9-82.4-.4-14.6-8.6-23.9-22.7-26.9-.7-.1-1.4-.6-1.9-.4-7.4,2.7-5.2-2.8-5.6-6.7h65.3v6.3c-8.6.8-16.3,3.7-22.1,10.7-3.5,4.3-5.2,9.2-5.2,14.7.4,29.5.7,59,1.2,88.4.3,17,1,33.9,1.4,50.9,0,1.7-1.1,4.8-1.7,4.8-2.5,0-6.1,0-7.4-1.5-29.3-33.8-58.3-67.9-87.3-101.9-10.7-12.5-21.4-25-32.1-37.6-.8-1-1.3-2.2-2.2-4,0,15.6,0,29.4,0,43.3.2,19.8.4,39.6.8,59.4.4,19.8,7.9,28.3,26.6,30.7,1,.1,1.9.3,3.1.6,0,1.2.3,2.4.2,3.5,0,1.1-.2,2.3-.4,3.8h-65v-7c.4-.2.7-.5.9-.6,18.6-1.5,27-13.6,26.7-30.9-.5-36.5-1.2-72.9-1.9-109.4,0-1.1,0-2.6-.7-3.3-6.2-7-13.2-12.7-22.8-14.3-1.3-.2-2.8.4-4.8.8-.2-2.4-.4-4.8-.6-7.5,1.5-.2,2.6-.4,3.7-.4,14.5,0,29-.1,43.5.2,2.1,0,4.8,1.3,6.2,2.9,16.5,18.7,32.8,37.7,49.3,56.8M953.6,155c7.6,8.9,15.2,17.7,23.2,26.9,1.1-6.5-.3-11.7-4.2-16.3-12.2-14.3-24.2-28.8-36.4-43.1-27.2-31.9-54.4-63.8-81.8-95.6-5-5.8-11.6-8.1-19.8-7.7,4.5,4,8.9,7.2,12.5,11.1,9.6,10.8,18.9,21.9,28.3,32.9,25.9,30.4,51.8,60.8,78.2,91.7M851.3,168.3c-.8-1.7-1.6-3.4-2.1-4.5-3.9,4.8-7.6,9.6-11.1,13.9h20.2c-2.3-3.1-4.5-5.9-7-9.4M977.5,19.9h-12.9c4.2,4.6,8.4,9.2,12.1,13.2,2.3-3.8,5-8.4,7.9-13.2,0,0-7.1,0-7.1,0Z"/>
        <path class="cls-14" d="M305.3,186.7c-13.7,3.1-26.5,2.4-39.3-3.2-8.2-3.6-17.1-5-26.2-3.9-2.1.3-4.6,1.3-6,2.8-2.8,3-5.9,4.1-10.2,3.1v-62c8-1.6,8.1-1.5,10.8,6.1,5.7,16,13.8,30.6,27.7,41,13.4,10,28.3,14.1,44.5,7.6,14.7-5.9,21.7-17.3,21-33.2-.6-13.5-9.6-25.1-24.1-29-12.5-3.3-25.2-5.6-37.9-8.2-11.2-2.3-22-5.7-30.6-13.7-17.4-16.2-19.3-44.8-4.5-64.8,12-16.3,28.4-21.5,47.9-18.5,7.9,1.2,15.7,3,23.6,3.9,3.5.4,7.2-.5,10.8-1.1,4.8-.7,9.6-1.5,14.6-2.3,1,9.2,1.8,17.2,2.8,25.3,1,8,2.1,15.9,3.1,23.8-7.6,2.3-9,1.8-12.5-4.6-5.9-10.7-12.4-20.9-22.1-28.6-11.4-9.1-24-13.5-38.6-10.2-13.3,3-24.2,15.1-24.4,28.7-.2,10.8,3.3,19.6,16.5,24.1,12.6,4.4,26,6.4,39.2,9,13.1,2.6,26.3,4.9,36.9,13.8,15.7,13.1,21.3,30.2,17.7,50-3.7,20.2-15.7,34.3-34.5,42.4-1.8.8-3.8.9-6.1,1.5M232.5,74c-2.3-7-4.6-14-6.9-21.2-1.5,10.3.4,20,5.9,28.9,6.7,11.1,16.7,17.4,29.2,19.9,13.8,2.8,27.8,5,41.5,8.4,16.7,4.1,32.1,16.6,29.7,40-.2,2.3-.6,4.6-.9,6.9.7.1,1.4.3,2,.4,1.3-5.1,3.4-10.1,3.9-15.3,1.8-20.1-13.5-34.1-29.8-38.5-13.8-3.7-28-5.7-42-8.6-13.3-2.7-24.9-8.2-32.7-21M237.8,165.9c-3.5-5.6-6.9-11.3-10.4-17v27.6c4.5-1.9,9-3.7,14-5.8-.8-1.1-2-2.6-3.6-4.8M302.4,22.9c-.3,0-.6,0-.9.2-.1,0-.2.4-.2.4,5.5,6.1,11,12.1,17.4,19.2-1.4-7.6-2.5-14.1-3.6-19.7h-12.8.1ZM482,185.9h-77.6v-7.6c3.8-.4,7.6-.7,11.3-1.1,10.6-1.1,15.1-5.7,15.5-16.4.3-7,.5-14,.6-21V20.1c-8.5-.3-16.7.4-24.9,2.7-14.7,4.1-25.2,13.9-33.7,26-2.9,4.2-6.1,5-11.5,4,2.9-13.1,5.7-26.3,8.6-39.6h155c2.9,12.9,5.9,26,8.9,39.1-7.4,1.9-8.9,1.7-12.5-4.1-6.6-10.6-15.3-18.8-26.7-24-10-4.6-20.7-4.1-32-4.4v142.4c.5,8,4.3,12.7,12.2,14.1,4.6.9,9.2,1.1,14.2,1.7v7.7h-7.5M444.3,46.5c0-5.5,0-11-.3-16.5-.3-4.3-1.6-8.4-7.4-10.1v5.7c0,43.1.1,86.3,0,129.4,0,7.7.3,15.9-6.5,21.8,0,0,.2.6.3,1,1.1,0,2.3.2,3.4,0,5.6-1,10.4-9.2,10.4-15.5-.1-38.3,0-76.6.1-115.9M505.6,19.9h-9.3c7.6,5.5,15.1,10.9,22.8,16.4-1.1-3.9-2.6-8-3.3-12.2-.6-3.5-2.2-4.9-5.6-4.3-1.1.2-2.3,0-4.4,0M372,35.7c5.9-5.3,11.8-10.6,17.3-15.6h-16.2c-1.1,5-2.1,9.9-3,14.7,0,.4.8.9,1.8.9h.1ZM801,20c-5.7,1.3-11.3,1.8-16,4.1-2.5,1.2-4.3,5.4-4.9,8.5-1,5-.9,10.3-.9,15.4v106.4c0,18.5,3.8,22.5,22.2,23.5.7,0,1.3,0,2.3.2v7.6h-10.6c-22.3,0-44.6,0-66.9.1-6.4,0-3-4.6-3.9-7.4,4.7-.6,9-.9,13.2-1.6,7.2-1.2,10.4-4.4,11.5-11.5.5-3.4.9-6.9.9-10.4V42c0-3.6-.9-7.2-1-10.9-.2-5.8-4.4-8-8.9-9.2-4.8-1.2-9.8-1.5-15.1-2.3v-6.4h81c-.9,2.4,2.5,5.7-2.8,6.7M760.2,134.5V39.5c0-3,0-6-.3-9-1-7.4-6.4-11.2-14.3-9.9,7,5.4,6.8,13,6.8,20.5v117c0,7.3,1.1,15-7.4,19.3,12.8-1.2,15.2-3.8,15.2-15.9v-27h0Z"/>
        <path class="cls-13" d="M224.1,232.4c-2.8-1.9-5.6-3.4-8.3-4.9-.9-.5-1.7-1.4-2.5-2.1,1-.6,2-1.7,3-1.7,17.2,0,34.3-.5,51.5.3,17.8.8,32.7,12.6,37.1,27.9,6.1,21.1.8,38.7-15,50.3-8.1,5.9-17.6,7.7-27.2,8-15.1.4-30.2.2-45.3,0-1.3,0-2.6-1.1-4-1.7,1.2-.8,2.3-2,3.6-2.2,7.2-1.2,8.4-2.4,8.4-9.7v-57.5c0-2.1-.7-4.1-1.1-6.6M280,232.3c-1.2,0-2.5-.2-4.5-.3-1.7-.6-3.4-1.4-5.1-1.7-4.7-.9-9.5-1.6-15.1-2.2-2.1-.1-4.1-.2-6.5-.7-.6.2-1.1.5-2.3,1.1-3.2,1-4.9,3-4.9,6.6.1,20.9.2,41.9.2,62.8s1.5,7.7,7.7,8.4c14.9,1.6,26.5-3.7,35.7-16.1.8,0,1.6,0,2,.7-3.7,4.5-7.4,9-11.2,13.5,4.9-1.2,8.8-4.2,11.5-8.4,11.5-17.6,10.3-35.9,1.7-54.1-1.7-3.6-6.1-6-9.4-8.9v-.6M230.7,302.4c.1-.3.4-.6.4-.9,0-22.6.2-45.2,0-67.8,0-1.8-2-3.7-3.1-5.5-.3.2-.7.5-1,.7v77.4c1.1-1.1,2.2-2.1,3.7-3.9h0Z"/>
        <path class="cls-17" d="M720.1,310c-1.6-2.1-1.5-3.3,1.5-3.8,2.7-.4,5.3-1.2,8.5-1.9,1.1.1,1.6.4,2,1.1,5.1.3,6-3.2,6-7.2,0-20.9.2-41.8,0-62.7,0-2.4-2.2-4.7-3.5-7.1-.6.4-1.1.9-2.1,1.3-3.1-.7-5.7-1.3-8.4-1.9h-4.4c-1.1-2.9-.5-4.3,2.6-4.3,16.3,0,32.7-.3,49,.3,12.5.5,21.1,8.3,24.3,20.5.9,3.5-4.6,13.9-9.2,16.7-3.2,1.9-6.6,3.4-10.3,5.2l3.9,1.2c9.7,3,17,11.8,17.6,21.2.4,6.9-7.3,16.6-15.5,19.3-2.2.7-4.5,1.1-7.4,1.9-1.3.3-2,.3-3,0-2.8-.4-5.3-.9-7.7-.6-2,.2-4,1.2-6,1.8-.4,0-.9,0-1.8-.3-2.9-2.1-5.3-2.8-7.2.3-.7,0-1.5,0-2.7-.3-4.5-1.9-8.5-3.2-12.3.3-1.7,0-3.4,0-5.7-.3-2.8-.5-5.1-.6-7.6-.6h-.8M774.7,232.9l-1.8-.9c-6.5-5.3-13.8-5-21.2-2.7-1.5.5-3.4,2.8-3.5,4.3-.3,9.9-.2,19.8-.2,30,9.8-.8,20,2.6,28.6-5.3,1.1,2.1,1.3,2.2,2.8.7,7.1-7.7,5.4-25.7-3.4-29.6-.2-.2-.4-.5-.6-.7,0,.4-.3.9.2,2.8-.2.9-.3,1.8-1,1.5M775.6,274.1c-7.6-9.1-17.9-5.5-27.5-6.4,0,10.9-.3,21.3.2,31.7,0,2.2,3.2,5.9,5.2,6.1,5.3.7,11,.5,16.2-.7,3.1-.8,6.6-3.8,7.9-6.8,3.3-7.7,3.3-15.8-1.9-23.9M785.3,283.8c-1-8.2-4.9-13.5-9.6-13.4,8.8,10.3,7.8,21.5,1.8,33.2,5.9-2.6,8.1-8,7.7-19.8M776.1,304.4c.5.2.9.4,1.4.6,0-.4.3-.8.4-1.1-.4,0-.8-.1-1.8.6M773.5,228.5h.2c0,.1,0-.1-.2,0Z"/>
        <path class="cls-7" d="M1141,133.1c-2.6-2.5-5.2-4.7-7.3-7.2-3.1-3.8-3.7-7.9-1-12.4,2.6-4.4,4.5-9.3,7-13.8,3.8-6.8,7.7-7.7,14.7-4.1,10.5,5.4,21.9,6.3,33.4,6.8h5c0,8.1.7,16-.3,23.5-.5,3.3-4.2,6.8-7.3,9-11.9,8.7-24.6,8.9-37.6,2.3-2.2-1.1-4.3-2.6-6.7-4.1h.1ZM92,121.2c-3.8,4-7.1,8.6-11.4,12.1-14.6,11.7-35.3,11-46.8-1.1-3.1-3.2-5.1-6.6-4.7-11.5.5-5.9.1-11.9.1-17.9,8-.9,15.6-1.3,23-2.8,5.9-1.2,11.7-3.4,17.3-5.7,3.7-1.5,7.4-2,9.5,1.3,4.6,7.3,8.4,15,12.5,22.6.3.6,0,1.6,0,2.8.3.3.4.2.4.2h0Z"/>
        <path class="cls-18" d="M143.2,303.9c-8.7-3.5-17.2-6.6-22.7-14.4-2.6-3.7-1.9-6.1,2.3-7.7,1-.4,2.2-.2,3.3,0,2.5.3,4.9,1,7.3,1.2,7,.7,8.5-.6,9.3-7.5,1.6-13.5,11.9-20.1,26.6-17,1.1.2,2.2.8,3.4.9,5.7.5,7.2,3.7,7.1,9.1-.3,12.3-.2,24.6,0,37,0,4-1.3,6.3-5.4,5.5-10.3-2.1-20.6-4.6-31.2-7h0Z"/>
        <path class="cls-4" d="M1102.7,286.9c-2.6,3.1-4.4,6.7-7.4,8.8-10.9,7.8-23.4,11.3-36.5,13.4-3.9.6-7.7,1.4-11.5,2-2.9.4-4.3-.8-4.3-3.9,0-14.3,0-28.6,0-42.9,0-1.3,1.6-3.6,2.8-3.8,5.7-1.1,11.4-2.3,17.1-2.1,8.6.2,14.4,6,16.1,14.3,2.2,11.2,4.8,12.7,16.3,9.5,4.5-1.2,7.2.3,7.3,4.7Z"/>
        <path class="cls-7" d="M104.9,40.2c-9.8-3.6-18-8.7-24.2-16.7-4.7-6.1-3.4-11.5,4-12.3,10.8-1,21.8-.9,32.6,0,12.1.9,23.4,4.9,33.1,12.3,2.7,2.1,5.2,4.7,7.2,7.5,2.7,3.9,1.3,8-3.3,8.8-10,1.9-20.1,4-30.2,4.4-6.2.3-12.6-2.5-19.2-4Z"/>
        <path class="cls-4" d="M1118.2,10c6.8.4,13.1.1,19.3,1.3,7,1.4,8.5,6,4,11.7-6.4,8.1-14.7,14.1-24.5,17.1-7.8,2.4-16.2,4.2-24.2,4.1-8.4,0-16.9-2.6-25.2-4.6-4.2-1-5.3-4.9-3-8.6,4.5-7.3,11.8-10.9,19.2-14.3,10.8-4.9,22.3-6.3,34.4-6.7h0Z"/>
        <path class="cls-1" d="M149.7,168.5c.3,4.9-2.6,7.5-6.3,8.9-13.1,4.9-25.9,4.7-37.2-4.5-6.5-5.3-12.9-9.3-21.6-10.1-4.2-.4-8.4-2.9-12.2-5.2-1.9-1.2-4-4.1-3.9-6.2,0-1.5,3.4-3.6,5.5-4.1,8.7-2.1,17.6-3.3,26.3-5.6,12.6-3.3,20.3,3.2,27.1,12.2,4.3,5.7,9,10.6,17,10.8,1.7,0,3.3,2.2,5.2,3.7h.1Z"/>
        <path class="cls-8" d="M156.4,117.3c2.7-5,4.8-9.9,11.8-9.4,6.5.5,10.8,4.2,11.5,11.8.8,8.3-.2,16.3-3.7,24.1-6.4,14.2-25.1,14.3-34.5,8.9-.8-.5-1.7-1.3-2-2.1-3.4-8.4-6.8-16.7-10-25.2-.8-2.2-1.4-5-.9-7.2.8-3.8,5.7-5.3,10.5-3.5,2.9,1.1,5.7,2.4,8.3,4,3.4,2,6.2,1.6,9.1-1.3h-.1Z"/>
        <path class="cls-14" d="M151.1,50.1c8.3,0,16.2,0,24,0,3.3,0,4.5,1.4,4.5,4.3,0,11.3.1,22.7,0,34,0,1.3-1.2,3.3-2.4,3.8-7.9,3.7-15.8,8-24.1,10.4s-13.2-3.5-10.8-11.7c.5-1.8.8-3.6,1.7-5.2,6.1-10.5,3-19.8-3.8-28.5-.3-.4-.8-.7-1-1.1-.6-1.3-1.9-3.4-1.5-3.8,1-1.1,2.8-1.8,4.3-2,2.8-.3,5.7,0,9,0v-.2Z"/>
        <path class="cls-7" d="M1131.7,143.3c6.5,1.7,12.7,2.9,18.6,5,4.9,1.7,5.1,4,1.4,7.5-4.8,4.7-10.9,7.4-17.4,7.5-7,.2-11.9,3.7-16.6,7.9-11,9.9-23.7,10.9-37.1,6.7-2.2-.7-4.4-2.4-6.1-4.1-3.4-3.5-2.1-8.7,2.6-9,9.5-.5,14.3-6.8,19.4-13.2,3.9-4.9,8.2-9.4,14.6-10.4,3.2-.5,6.6,0,9.8.4,3.5.3,6.9.9,10.8,1.5v.2ZM1043.4,118.6c.9-5.3,2.5-9.6,8.1-10.5,6.6-1.1,9.6.5,13.1,6.5,4.1,7,5.9,7.4,13.7,3.3,2.9-1.5,5.9-3.3,9-3.7,4.9-.6,7.8,2.6,6.5,7.4-1.4,5.1-3.8,9.9-5.8,14.8-1.8,4.5-3.5,9-5.5,13.3-.7,1.5-1.8,3.2-3.2,3.9-16.1,8-33.9-1.8-35.8-19.7-.5-4.9,0-10,0-15.4h0Z"/>
        <path class="cls-1" d="M1075.9,68.2c0,4.2-.4,8.2.4,11.9.8,4.2,2.9,8.1,4,12.3,1.7,6.1-1.4,10.5-7.7,10.3-10.6-.4-19.8-5.2-28.4-11-.8-.6-1.2-2.3-1.2-3.5v-37.8h42.7c-3.3,6-6.5,11.7-9.8,17.8Z"/>
        <path class="cls-7" d="M33.1,10.1c9.8.3,19.1,0,28.3,1.1,7.2.8,8.9,5.2,4.7,11-8,11.3-19,18.4-32.7,20.8-6.5,1.1-13.1,1.3-19.6,1.9-3.1.3-4.5-1.2-4.5-4.3V13.7c0-2.9,1.2-3.7,3.9-3.7,6.5.1,13,0,20,0h0Z"/>
        <path class="cls-4" d="M1186,42.4c-.8,0-1.5-.2-2.8-.5-2.1-.7-3.6-1.1-5.2-1.6-1.4-.8-2.7-1.5-4.6-2.6-2-1.3-3.6-2.2-5.1-3.1-.6-.5-1.2-.9-2.2-1.8-2.6-2-4.8-3.5-6.9-5.1-1.4-2.2-3-4.3-4.1-6.7-2.5-5.1-.9-8.4,4.3-9.9,1.9-.5,3.9-1.1,5.8-1.1h46.5v34.7c-4.5,0-9.1,0-14.5,0-3-.5-5.1-1-7.3-1.4-.4,0-.9,0-1.8-.4-1.1-.3-1.6-.4-2.2-.5h0Z"/>
        <path class="cls-17" d="M612.1,250.1c-4.7-6.2-1.8-11.7,2.3-16.2,3.9-4.4,8.5-8.4,13.4-11.7,6.4-4.2,13.9-2.2,18.4,4,5.6,7.7,5.1,12.8-2.1,19.2-3.1,2.8-6.3,5.3-9.3,7.9,6.6,8.9,13.2,17.6,20.3,27.1,2.5-5.1,5.1-9.7,7-14.6,1.7-4.3-.4-7.5-4.9-9.1-1.4-.5-2.5-2-3.8-3.1.3-.5.6-.9.9-1.4h29c.8,2.5.9,3.9-2.5,4.8-7,2-10.6,8.3-14.7,13.6-2,2.6-3.3,5.9-5.6,8.2-3.8,4-3.2,7.4,0,11.1,1.5,1.7,2.8,3.7,4.2,5.6,4.3,5.6,8,5.7,12.4.3.7-.9,1.4-1.8,2.4-3.1,1.2.5,2.4,1.1,4.4,2-3.1,3.9-5.8,7.4-9.1,11-1.7-.2-2.8-.9-3.8-.9-9.8.6-14.6-6.1-19.6-13-9.9-13.5-20.4-26.6-30.4-40-2.7-3.6-4.8-7.7-7.8-12.6-.3,2.3-.6,4.2-.8,6.1-.2,1.5-.2,3-.4,4.5M628.6,226.3c-.2.9-.3,1.8-1.2,2.8-6.9,1.4-9,5.7-5,11.3,2.6,3.7,6,6.9,8.9,10.2,7-3.6,7.9-8.9,6.2-15.9,1.4,2,2.7,4.1,4.3,6.5,1.4-9.2-4.9-16.2-13.2-14.8M671.2,257c-2.6-.4-5.2-.8-8.4-1.3,1.3,3,2.1,4.8,3.3,7.7,1.9-2.2,3.3-4,5.1-6.4h0Z"/>
        <path class="cls-7" d="M69.8,182.6c17.6-4.1,34.5-4.4,50,5.2,4.9,3.1,9.1,7.6,12.8,12.2,2.8,3.5,1,7.6-3.4,8.8-3.6,1-7.5,1.5-11.3,1.5-14.9.2-29.5-1.1-42.8-8.8-3.3-1.9-6.6-4-9.2-6.7-1.9-2-3.9-5.5-3.3-7.6.5-1.9,4.4-3,7.2-4.6h0Z"/>
        <path class="cls-1" d="M1131.2,180c8,1,15.7,1.7,23.1,3.1,6.3,1.2,7.9,5.8,3.1,10-5.4,4.7-11.6,9-18.1,11.9-12.5,5.5-26.1,6.1-39.5,5.1-3.7-.3-8.8-2.1-10.5-5-2.7-4.3,1.8-7.9,4.8-10.9,10.1-10,22.7-14,37.1-14.2h0Z"/>
        <path class="cls-14" d="M607.2,354c13.9,2.1,27.3,4.1,40.6,6.3,1.3.2,2.3,2,3.4,3-1.2,1.1-2.3,2.8-3.7,3.1-12.4,2.7-24.8,6-37.4,7.5-8,.9-16.4-.9-24.6-1.5-6.6-.5-13.2-.9-19.8-1.7-3.1-.4-7.1,0-7.5-4.9-.4-5.1,2.4-7.5,6.9-8.9,11.7-3.5,23.6-3.3,35.6-3.1,2,0,4,.1,6.5.2Z"/>
        <path class="cls-8" d="M1186.5,240.9c4.2,10.9-3.2,22-14.5,22s-21.6-.7-32.4-1.1c-1.1,0-2.3-.4-3.4-.8-7.7-2.4-9.5-8.6-3.8-14.4,2.7-2.8,6.2-5,9.8-6.6,9.5-4.3,19.8-5.6,30.2-5.8,5.5,0,10.6,1.2,14,6.7h.1ZM41.2,235.8c16.4-3.5,31.3-.2,45.3,7.9,1,.6,1.8,1.5,2.6,2.3,6.7,7.1,5.1,13.8-4.7,15-12.3,1.5-24.8,1.7-37.2,1.7s-10.5-5.9-12.2-12.8c-1.4-5.8.5-10.2,6.2-14.1ZM1153.2,75.3c.9-4.6,1.9-8.8,2.6-13,.7-4.6,9.3-12.1,14.5-12.2,7.3-.2,14.7,0,22.4,0v36.2c-11.9,3.6-23.7,3.2-35.3-1.9-4-1.7-4.5-5-4.1-9.1h0Z"/>
        <path class="cls-1" d="M29.2,72v-21.9c8.2,0,16-.5,23.7,0,6.7.5,12.8,8.6,13.2,15.6,0,1.9,1,3.8,1.9,5.6,3.1,6.1.9,12.4-5.6,14.6-9.8,3.3-19.8,3.1-29.9,1.4-1.3-.2-2.9-2.5-3.1-4-.5-3.6-.1-7.3-.1-11.5h0Z"/>
        <path class="cls-8" d="M719.1,345.1c3.7,1.1,7,2.2,10.3,3.3,0,.5-.2,1-.2,1.4-1,.3-2,.9-3,1-7.1.7-14.2,1.3-21.2,2.1-4.9.5-9.9.9-14.7,2-14.2,3.3-27.3.2-40.1-5.8-3.1-1.5-6.2-2.9-9.2-4.7-1.1-.6-2.8-2.3-2.6-2.9.4-1.3,1.8-3,3-3.3,6.2-1.3,12.4-2.5,18.6-3,18.3-1.5,35.5,4.1,52.9,8.2,1.9.5,3.8,1.1,6.1,1.7h.1Z"/>
        <path class="cls-4" d="M532.6,336.6c6.4,1.5,12.4,2.7,18.3,4.3,1.5.4,3.4,2.2,3.5,3.5s-1.4,3.7-2.7,4.1c-4.3,1.5-8.9,3.1-13.4,3.4-16.9,1.1-33.9,1.1-50.4-3.9-4.4-1.3-8.6-3.5-12.6-5.7-1.2-.7-2.6-2.7-2.4-3.9.2-1.2,2-2.8,3.4-3.1,3.5-.9,7.2-1.7,10.8-1.6,15.1.7,30.1,1.7,45.6,2.7v.2Z"/>
        <path class="cls-11" d="M983.1,310.9c-9.7,0-19.4.1-29.7-.1-1.1-.4-1.6-.6-2-.7.9-1,1.6-2.7,2.6-2.9,3.4-.6,4.8-2.3,4.8-5.7v-37c0-5.1-3.7-5.1-8.9-6,2-1.6,3-3.1,4.1-3.1,10.8,0,21.7-.5,32.4.7,14.7,1.7,23.9,13.7,23.5,28.7-.4,13.3-10.4,23.3-25.6,25.2-.8.5-1,.7-1.1,1M993.8,263.4c-.5-1-1.1-2-1.7-3.2-.8,1.1-1.5,2-2.7,2.4-5.1-1.2-10.1-2.7-15.2-3.5-2.6-.4-5.5.9-5.5,4.3,0,13.1,0,26.2.4,39.3,0,1.3,1.7,3.6,2.9,3.8,5.8,1.1,11.5,1.1,16.7-2.6,1.3-.9,2.9-1.4,4.5-1.5l-1.8,2.1.9.9c2-2,4.4-3.7,5.8-6,6.4-11,5.4-22.2,0-33.2-.6-1.1-2.5-1.5-4.1-2.9M962.5,268.6c-.2-2.9-.5-5.8-.7-8.7-.5,0-.9,0-1.4.1v46.1h1.6c1.3-12.1.3-24.4.6-37.6h0Z"/>
        <path class="cls-18" d="M110,73.9c8.3-2.1,16.3-4.1,24.2-6l1.2,1.6c-.5,1.9-.8,3.9-1.5,5.8-2.2,5.9-4.8,11.6-6.8,17.5-2.1,6.2-6.5,10.1-13.1,10.2h-13.5c-10,.2-12.5-5.9-9.3-14.6,3.1-8.4,10-12.5,18.8-14.4h0Z"/>
        <path class="cls-8" d="M1094,87.3c-2.6-6-5-11.7-7.4-17.4l1.2-1.5c5.5,1,10.9,1.8,16.3,3,4.2,1,8.3,2.4,12.4,3.8,8.2,2.6,13,8.3,15.2,16.4,1.7,6.3-1.7,11-8.2,11.3-4.5.2-9,.2-13.5.2-8.9,0-13-3.3-15-12-.3-1.1-.7-2.2-1.1-3.7h0Z"/>
        <path class="cls-10" d="M661.6,383.5c7.5,3.7,14.6,7.2,21.7,10.7,0,.5.2,1,.3,1.5-1.7.7-3.4,1.9-5.1,2.1-7.8.7-15.6,1.7-23.4,1.4-11.8-.3-23.6-1.4-35.3-2.5-3.2-.3-6.4-1.5-9.4-2.9-4.1-1.9-4.6-5.6-.5-7.3,4.7-2,10.1-2.7,15.3-3.2,5.8-.6,11.9.3,17.6-.8,6.4-1.2,12.4-2.1,18.9.9h0Z"/>
        <path class="cls-20" d="M703.5,373.2c24.4-3.9,45.9,4.7,67.5,12.6v1.7c-1.5.4-2.9.9-4.4,1-11.9,1.1-23.8,2.2-35.7,3.2-13.2,1-24.2-4.6-34.4-12.1-.6-.4-.2-3.5.6-4.1,1.7-1.2,4-1.5,6.4-2.3h0Z"/>
        <path class="cls-14" d="M756.8,404.6c-2.3-3.2.3-3.1,1.9-3.2,5.1-.5,10.3-.7,15.4-1.2,6.6-.6,13.2-1.4,19.8-2,10.7-1.1,20.4,2.1,29.3,7.7,3,1.9,5.9,4,8.9,6v2c-4.2,1-8.3,2.5-12.5,3-22,2.5-42.3-4.4-62.7-12.3h-.1Z"/>
        <path class="cls-18" d="M1053,17.8c.5,2,.9,4.1,1.5,6.1,1.8,6,.8,10.6-4.8,13-7.5,3.3-15.5,5.4-23.4,7.6-1,.3-3.8-1.8-3.8-2.9-.3-10.4-.2-20.8-.2-31.7,6.9,0,13.4-.6,19.8.3,2.8.4,5.4,3.4,7.9,5.4,1,.8,1.7,1.9,2.7,2.6.2-.4,0-.4,0-.4h.2Z"/>
        <path class="cls-8" d="M168.5,21.7c4-7.7,8.9-13.1,18.3-11.7,4.2.6,8.5,0,13.1,0v30.6c0,3.3-1.6,4.8-4.7,4-6.8-1.8-13.8-3.2-20.3-6-7.9-3.4-9.4-8.4-6.6-17h.2Z"/>
        <path class="cls-20" d="M725,420.9c-17-3.1-34-4.4-49.5-11.8v-1.9c2-.9,4-2.4,6-2.6,20.4-1,40.9-1.7,60.9,4.3,2.8.8,6.3,1,6.7,5.4.4,3.6-1.7,5.1-4.4,5.4-6.4.7-12.9.9-19.8,1.3h0Z"/>
        <path class="cls-18" d="M1173.7,191.3c3.4,1.5,6.7,2.4,9.3,4.3,7,5,7.5,12.7.9,18.1-10.2,8.2-22.4,9.5-34.9,8.5-3.6-.3-4.8-2.9-2.5-6.1,1.7-2.4,3.9-4.6,5.8-6.8,3.7-4.2,7.5-8.5,11.2-12.7,2.6-3,5.2-6.3,10.3-5.3h-.1Z"/>
        <path class="cls-10" d="M1052.9,240.2c-5.2-7.1-5.5-14.8-4.4-22.7.7-4.9,3.5-6.6,7.7-3.9,4.6,2.9,8.8,6.5,12.9,10.1,5.4,4.9,10.5,10.1,15.5,15.4,1.6,1.7,2.3,4.1,3.4,6.2-2,1-3.9,2.6-6,2.8-10.6,1.3-21.1,1.8-29.1-8h0Z"/>
        <path class="cls-18" d="M52.3,191.5c1.6,1,3,1.7,4,2.7,6.6,7.2,13,14.6,19.5,21.9,2.2,2.5,1.9,4.5-1.3,5.6-1.7.6-3.5,1-5.3,1-8.3-.2-16.4-.8-24.1-4.5-8.3-4-12.4-9.5-10.8-15.8,1.6-6.3,9.9-11.4,18-10.9Z"/>
        <path class="cls-10" d="M839.6,515.5c9.1,4,17.9,7.8,26.6,11.6,0,.6,0,1.2-.2,1.8-1.7.7-3.4,1.7-5.1,2-14.3,2.2-28.6,1-42.9.7-3,0-6.1-1.4-9-2.7-6-2.6-6.2-6.9-.9-10.8,5.8-4.2,12.4-5.5,19.4-4.8,3.9.4,7.8,1.3,12.1,2.2h0Z"/>
        <path class="cls-20" d="M789.9,439.2c-6.1-3.1-11.9-5.9-17.5-9-1.3-.7-1.8-2.7-2.7-4.1,1.5-.7,2.9-2.1,4.4-2.1,13.6,0,27.2-.3,40.7.4,3.4.2,7.3,3,9.7,5.7,4,4.6,2.3,9.3-3.3,11.6-10.7,4.5-20.8.8-31.2-2.6h-.1Z"/>
        <path class="cls-14" d="M152.7,248.6c-5.2-.3-10.1-.3-14.8-1-4.3-.7-5.3-3.4-2.4-6.2,9.4-9.1,18.7-18.4,28.8-26.7,5.7-4.7,8.4-3,8.9,4.4.3,4.1.5,8.4-.3,12.3-2,10.6-7.8,15.3-20.2,17.2Z"/>
        <path class="cls-4" d="M1103.2,309.1c-1.5-.4-2.7-.5-3.7-1-.9-.5-2.2-1.5-2.2-2.2,0-1.1,1-2.7,1.9-3,4.7-1.6,9.4-3.2,14.2-4.1,10.8-2,21.6-3.6,32.4-5.4,4.5-.7,9.1-1.3,14.1-2-1.1,5.8-1.7,10.8-3,15.6-.7,2.6-2.6,4.2-6.2,4.1-13.8-.4-27.7,0-41.5-.2-1.9,0-3.7-1.2-6-1.9h0ZM731.2,448.9c-10.7-2.5-21-4.9-31.3-7.5-1.5-.4-2.5-2.2-3.8-3.3,1.5-1,2.9-2.6,4.5-2.9,22.6-5,44.1-.8,64.8,8.5,1.5.7,2.7,2.1,3.9,3.9-12.5,3.9-25.1,2.4-38.1,1.4h0Z"/>
        <path class="cls-13" d="M321.3,262.9c-.5-3.5-3.1-3.8-5.9-4.1-.8,0-1.5-.8-2.2-1.3.8-.6,1.5-1.6,2.3-1.6,13.2-.2,26.3-.2,39.5-.1,1,0,2.6,1,3,1.9,1.4,3.3,2.4,6.8,2.7,11-1.2-.8-2.5-1.5-3.5-2.4-5.7-5-12.2-7.9-20-7.4-4,.3-6,2-5.9,6.3.2,4.7,0,9.3,0,14.6.2.8.5,1,.7,1.1,3.5-.3,6.9-.6,10.9-.5.7,1.4,1,2.6,1.2,3.7h-12.7v17.9c0,3.4,1.8,4.6,4.9,5,8.8,1.1,16-1.7,21.7-8.5,1.2-1.4,3-2.2,4.5-3.3.4.4.8.7,1.1,1.1-1.3,4-2.4,8.1-4,12-.3.9-2,1.7-3.1,1.7-14.3.1-28.6,0-44.6,0,1.7-1.6,2.4-2.5,3.3-3,1.8-.9,3.8-1.6,6.1-2.6.6,0,.7.3.9.9.3.5.6.7.9.9v-1.3l.4.3c.8-.8,1.5-1.9,1.5-2.9,0-12.8.1-25.6,0-38.4,0-1.3-1.1-2.5-1.7-3.8-.4.6-.7,1.1-1.2,1.9-.4.5-.6.7-.8.9h0Z"/>
        <path class="cls-17" d="M485.1,290.5c-2.7-.6-5.3-1.2-8.4-1.9,3.2-2.5,19.2-2.8,24.6-.2-9.1,1.1-7.3,7.4-7.1,12.6.2,3.7-1.2,5.4-4.5,6.5-9.6,3.1-19.2,5.4-29.3.4-.3-.4-.3-.9,0-1,.1-.4,0-.7-.2-1v-.3c-.2-.5-.6-.6-1-.7v-.4c-.7-.5-1.3-.6-1.9-.7l.3-.3c-10.1-12.5-11.2-22.9-3.7-36.1.4-.7.3-1.6.5-2.4l.4.2c.5-.3.6-.8.6-1.2l.3.2c.4-.3.5-.8.9-1.3,1.1-1.7,1.9-3.3,2.7-4.9,5.7-3.8,11.9-3.6,18.2-2.3,5.1,1,10.2,3.6,15.7-2.5.4,7.5.7,13.2,1,19-.6.1-1.2.2-1.7.3-1.3-2-2.6-4-4-6-8.8-12.7-23.3-11.7-29.3,2.3-4.5,10.6-4.1,21.4,2.1,31.5,4.7,7.6,14.8,10.1,21.6,4.6.8,0,1,0,1.3.3,4.3-2.4,5.9-11.5,2.7-14.9-.3-.3-1.1,0-1.7,0v.2Z"/>
        <path class="cls-8" d="M842.5,462.6c-6.8,1.9-13.2,3.7-19.8,5.1-12.1,2.6-24.2,5-36.4,7.4-1.3.3-3,.2-4-.4-.8-.5-1.1-2.3-1-3.4.4-3.4,1.3-6.7,1.8-10.1s1.9-5.4,5.8-5.3c14,.2,27.9,0,41.9.3,3.3,0,6.6.8,9.7,1.7,2,.6,4.4,1.6,1.9,4.8h0ZM1055.9,180.1c7.5,2.8,14.5,5.5,21.5,8.6,1.6.7,3.1,2.6,4,4.2,4.4,8.7.9,15.1-9.1,14.9-10.4-.1-20.5-2.2-25.1-13.4-1.4-3.4-3-7.6-2.1-10.6,1.3-4.4,6.4-3.8,10.9-3.7h-.1Z"/>
        <path class="cls-7" d="M156.3,207.2c-3.1.2-5.7.6-8.3.4-4.2-.3-8.8-2.2-9.2-6.3-.3-3.6,1.5-8.6,4.2-11,7.5-6.5,16.5-10.6,26.8-10.3,8,.2,9.5,4,6.6,11.3-3.7,9.3-9.7,14.9-20.1,15.9h0Z"/>
        <path class="cls-4" d="M65.4,292c7.8,1.4,15,2.8,22.4,4,6.5,1.1,13.1,1.6,19.7,2.7,4.7.8,9.4,1.8,13.9,3.3s2.5,2.5,3.8,3.8c-1.5,1-2.9,2.7-4.6,2.9-5.2.8-10.5,1.3-15.8,1.4-11.1.2-22.3,0-33.4.1-4.8,0-6.4-2.3-6.9-6.6-.3-3.1-1-6.1-1.9-9.1-.9-2.8.6-2.7,2.9-2.7v.2Z"/>
        <path class="cls-18" d="M1193,305.9v4.8c-12.9,1.1-20.6-6.8-20.5-19.5,0-5.8.9-11.6,2-17.3,1.2-6,5.5-7.8,11.2-5.4,2.1.9,4.4,1.5,7.3,2.4v35Z"/>
        <path class="cls-20" d="M601.8,278.6c2.7-3.3,5.2-6.7,8.2-9.8,3-3,6.3-5.7,9.6-8.6-1-1.2-1.9-2.4-2.4-3.9,2.6,1.5,4.8,3.5,6.9,5.8-.4.8-.7,1.4-1.4,1.9-2.4,2.1-4.9,3.9-6.3,6.3-1.9,3-3.7,6.4-4.2,9.8-1,7.8,4.7,16.3,12,19.3,7.2,3,14.3.8,20.5-6.5-3.9-5.9-7.9-11.8-11.6-18,.5-.6.9-.9,1.5-.9,5.3,7.6,10.4,14.9,15.4,22.3,4.5,6.7,9.6,12.4,18.7,11.6.4,0,.9.6,1.4,1-11.8,4.1-16.9-4.6-22.2-11.1-8,4.3-15.5,8.9-23.4,12.5-6,2.7-11.3-1.3-16.4-3.9-2.3-1.2-3.9-3.8-5.8-6.4.3-1.2.6-1.8,1.1-2.1,3.5,7.6,9.8,9.1,17.3,9.7-4.1-2.8-8.2-4.9-11.2-7.9-4.8-4.9-6.3-11-4.6-17.8.6-2.3.5-2.3-1.9-2.1-.6-.6-.8-.9-1.1-1.3h0Z"/>
        <path class="cls-14" d="M1105.8,50.1h42.1c0,4.2,0,7.9,0,11.7,0,1-1,2.3-1.9,3-8.5,6.3-30.5,7.5-40.9-4.2-3.6-4.1-3.6-6.8.8-10.4h0Z"/>
        <path class="cls-1" d="M29.3,271.8c3.2-1.7,6.4-3.1,9.6-4.3,3-1.1,5.4.1,6.6,2.8,4.9,10.7,6,22,.9,32.7-3,6.3-9.6,8.6-17.2,8v-39.2h0Z"/>
        <path class="cls-14" d="M1191.9,162.6c-1.7,7.9-8.4,10.1-14.1,10.9-6.7.9-13.9-.7-20.7-2.1-4.4-.9-5.2-3.4-2.2-6.8,4.5-5.1,9-10.4,14.5-14.2,10.7-7.5,21.4-1.6,22.5,12.2h0Z"/>
        <path class="cls-18" d="M110.9,50.1c2.7.3,5.6-.3,7.1.9,3.2,2.5,2.4,5.8-.2,8.7-8.1,8.9-18.5,11.1-29.7,9.2-16-2.7-13.4-3.4-13-18.8,0,0,35.8,0,35.8,0Z"/>
        <path class="cls-14" d="M1157.8,285.7c-10.5,5.1-21.1,6.6-32.2,4.2-2.2-.5-4.5-1.5-6.2-2.9-3.2-2.6-2.6-6.6,1-8.5,12.4-6.4,25.8-8,39.5-6.5,2.2.3,5.1,2.4,5.9,4.4.5,1.4-1.7,4.2-3.2,5.9-1.1,1.3-2.9,2.1-4.8,3.3h0ZM56.3,277.8c1-5.6,5.5-6.3,9.4-6.6,12.3-.8,24.1,2,35.2,7,1.7.8,3.8,3.2,3.8,4.9s-2,4.3-3.7,5.1c-9.4,4.2-19.1,3.5-28.7.7-6.4-1.9-12.7-4.2-16-11.1Z"/>
        <path class="cls-4" d="M33.6,152.6c5.3-7.5,12.6-7.2,20.2-1.3,5.1,3.9,9.3,9,13.8,13.6,2.8,2.8,2.2,4.9-1.6,6.1-8.9,2.8-18,3.2-26.9.7-8.5-2.3-10.3-9.2-5.5-19.2h0Z"/>
        <path class="cls-13" d="M903.9,261.2c-2.5-1.1-5-2.1-8.7-3.7,1.8-.8,2.9-1.6,4.1-1.7,7.5-.1,14.9,0,22.4,0l.8,1.2c-1.1.7-2.1,1.8-3.2,1.9-4,.3-5.4,2.3-5.3,6.2,0,12.1,0,24.3,0,36.4,0,3.9,1.9,5.3,5.4,5.6,8.4.9,15.3-1.6,20.8-8.1,1.3-1.5,3.4-2.4,5.7-2.9-3.3,5.4-.2,15.4-11.4,14.7-.9-.3-1.1-.2-1.2.2-11.4,0-22.7.1-34.7-.1-.8-.5-1.1-.7-1.4-.7-3.6-1.6-1.5-2.2.5-2.9,2.1-.7,4.1-1.6,6.6-2.6.6,0,.8.4,1.1.9,0,.5,0,.7.2.8,0,.1.2.2.4.2.8-1.8,2.2-3.5,2.2-5.3.2-11,.2-21.9,0-32.9,0-2.4-.6-4.8-1-7.2,0-.1-1.3,0-2.3,0s-.7.1-.9.2v-.2Z"/>
        <path class="cls-8" d="M839.6,475.2c17.5-3.1,34.6-4.7,51.8-1,2.5.6,5,1.8,7.2,3.2,1.1.7,2.6,2.6,2.3,3.3-.5,1.3-2,2.7-3.4,3.1-3,.8-6.2,1.3-9.3,1.2-10.4-.3-20.9-.3-31.2-1.5-5.9-.7-11.6-3.4-17.3-5.4-.4-.1-.2-1.8,0-2.9h0Z"/>
        <path class="cls-11" d="M378.5,258.5c-4.3,1.6-5.1,5.4-4.1,8.8.7,2.6,3.1,5.7,5.5,6.6,5,2,10.5,2.6,15.7,3.9,9.1,2.3,14.1,10.4,12.1,19.3-2.1,9.3-11.3,15.4-20.2,13.4-1.8-.4-3.5-1-5.2-1.7-4.3-1.8-8.2-2.2-11.9,3.6v-22.1l1.2-.6c.9,1.5,2,2.9,2.7,4.5,2.6,6,6.2,11,12.8,13.1,6.9,2.3,13-1.3,14.8-8.8,2.7-2.1,4-4,1.6-7-2.6-6.5-8.3-7.5-13.8-8.3-7.3-1-14-3.1-19.6-8.2-2.6-7.2,0-13.9,7.7-18.1.6.8.7,1.2.7,1.6h0Z"/>
        <path class="cls-17" d="M139.7,227.8c-17,5-33.4,5.9-49.5-1.9,7.9-4.9,16.3-7.8,25.2-8.8,8-.8,15.9.1,23.4,3.4,4.8,2.1,5.1,4.1.9,7.2h0ZM1099.6,231.4c-4.8-.9-9.3-1.4-13.6-2.7-2.3-.7-4.1-2.7-6.2-4.1,1.9-1.6,3.5-3.9,5.7-4.7,12.2-4.9,24.4-3.6,36.4.9,3.5,1.3,7,2.8,10.4,5-10.4,5.4-21.2,6.4-32.7,5.6h0Z"/>
        <path class="cls-13" d="M811.2,255.4c1.4,0,2.7-.1,4.6.2,1.8.2,3.1,0,4.4-.2,2,0,4-.3,6-.1.7,0,1.4.9,2.1,1.4-.8.8-1.6,1.5-2.9,2.1-1.2,0-1.7.3-2.3.6-.9,2.2-2.4,4.4-2.5,6.6-.3,8.1,0,16.2,0,24.3,0,16,9.6,21.9,25,15.4.7.4.9.6,1.1.8-7.7,5.3-16.2,6.2-24.4,2.5-4-1.8-6.9-6.3-10.2-10.4.2-1.2.3-1.5.6-1.6.4.7.6,1.2.8,1.6h.4c.3-2.5-.2-3.8-1.4-4.1,0-10.9,0-21.4,0-31.6.5-.7.6-1.8.6-3.2-.7-.4-1.3-.5-2.1-.8-2.1-.1-3.9,0-5.8,0-.8-.4-1.6-.8-1.8-1.5,3-.9,5.4-1.4,7.8-1.9h0Z"/>
        <path class="cls-18" d="M568.3,341.1c-1.1-.9-2-1.7-3.8-3.4,4.7-1.2,8.4-2.4,12.1-3,12.6-2.1,24.9-1.8,36.2,5.1,1.9,1.2,3.2,3.4,4.8,5.2-2.1,1-4.2,2.7-6.4,3-14.8,1.6-29-.5-42.9-6.9h0Z"/>
        <path class="cls-10" d="M91.9,121.3c.5-.3,1-.5,1.4-.9,12.6-11.4,21.7-8.7,31,3,3.5,4.4,2,8.5-3.3,10.7-8,3.4-21,.6-26.7-6.1-1.3-1.5-1.3-4.1-2.1-6.5-.3-.3-.3-.2-.4-.2h0Z"/>
        <path class="cls-14" d="M1104.3,135c-9.2-3-10.4-8-4-14.6,8.6-8.9,19-9.2,27.6-1,2.9,2.8,3.3,5.2.2,8.3-6.6,6.6-14.5,8.3-23.8,7.2h0Z"/>
        <path class="cls-10" d="M812.4,503.4c-7.7,0-15,.2-22.3-.1-1.7,0-4.5-1.7-4.8-3-.4-1.6,1.1-3.9,2.3-5.5.9-1.2,2.6-2.1,4.2-2.6,12.4-3.7,25.1-5.5,38.5-4.7-7.1,4-7.4,15-17.9,15.9h0Z"/>
        <path class="cls-20" d="M123.1,250.1c4.5,2.5,9,4.4,12.6,7.5,3.7,3.1,2.8,7.2-1.9,8.2-6.7,1.4-13.8,2.3-20.6,1.8-5.1-.4-8.6-4.9-9.9-10.1-1.1-4,.3-7.1,4.5-8.7,5.3-2.1,10.1-.6,15.3,1.4h0Z"/>
        <path class="cls-10" d="M1111.4,247.7c4.7,1.2,7.4,3.6,7.1,8.4-.4,5.3-5,11.3-10.1,11.5-6.1.3-12.2-.4-18.3-1.3-1.8-.3-4.7-2.6-4.7-4,0-2.2,1.3-5.3,3.1-6.7,6.6-5.1,14.1-8,22.9-8h0Z"/>
        <path class="cls-13" d="M552.5,293.1c-.3-9.1-.7-18.1-.7-27.6,1.2-.4,2-.4,2.9-.4,0,7.4.2,14.7,0,22.8-.4,4.5-.6,8.3-.4,12,0,2.1.9,4.1,1.4,6.2.6,3.6,0,5.7-4.3,2.9,0-1-.2-1.4,0-1.9,0-1.5,0-3.3-.9-4.3-11.6-13.9-23.2-27.6-34.9-41.3-1.5-1.8-3.4-4.1-6.1-1.4-2.5-.4-5.2-.5-4.2-4.7,3.7,0,7.5-.2,11.2,0,1.4.1,3.1,1,4,2.1,10.1,11.9,20,23.8,30.2,36.3.7.7,1.2.8,1.7.9,0-.5,0-1,0-1.5h.1ZM901.8,503.7c-11.6,2.3-22.6,5.6-34.3,4.3-9.2-1-18-3.4-26.9-7.4,4.6-2.9,59.5-2.9,67.3,0-2.3,1.3-4,2.2-6.1,3.2h0ZM420.9,260.1c-2.2-.6-4.4-1.2-8.1-2.1,2.2-1.1,3.3-2.2,4.5-2.2,6.6-.2,13.3-.1,19.9,0,.9,0,1.8.9,2.7,1.3-.9.6-1.8,1.6-2.8,1.7-3.8.4-5.1,2.7-5.1,6.1v36.4c0,3.2,1.3,5.4,4.9,5.7,1.1.1,2.1.8,2.9,1.9-8.7,1.2-17.2,1.3-25.7.7,0-.6-.1-1.2-.2-1.8,2.1-.6,4.1-1.2,6.8-1.8,1.3.2,1.9.4,2.7.5.4-.6.5-1.1.6-1.6l.4.3c.7-.5,1.3-1.3,1.3-2,0-13.2.2-26.3,0-39.5,0-1.6-1.8-3.2-3-4.7-.9.4-1.4.7-2,1h.2ZM872.9,260.1c-2.2-.8-4.4-1.6-6.1-2.7,8.7-.4,16.9-.4,25-.3-.6.6-1.3,1.8-1.9,1.8-4.6.1-5.8,2.7-5.8,6.9,0,11.6,0,23.2,0,34.8,0,4,1.2,6.4,5.5,6.6.8,0,1.6.7,2.2,2.2h-25.5c-.2-.3-.4-.7-.5-1,2.1-.7,4.1-1.5,7-2.3,1,0,1.3,0,1.8.3,1.2-1.2,3.1-2.7,3.2-4.2.4-5.5.2-11,.2-16.4v-21.9c0-2,.5-5.4-4-3.7-.6,0-.8,0-1,.1v-.2ZM78,44.6c-4.8,0-9.1,0-13.5.2-3.4,0-5.2-1.1-4.6-5.1,1-6.7,5.4-10.8,12.3-10.4,6,.4,11.4,2.4,15.5,7,1.2,1.3,2.4,4,1.8,5.2-.7,1.5-3.2,2.5-5.1,3s-4,0-6.4,0ZM1161.2,36c0,.4,0,.9.2,1.9.3,1.1.5,1.6.8,2.1.5,3.6-.7,5-4.7,4.8-6.4-.4-12.9,0-19.3-.3-2,0-5.1-1.1-5.7-2.5-.6-1.6.6-4.6,2-6,6-5.7,13-8.5,21.9-5,.5.3.9.5.9.5h.4c0,.2.3.3.7.9,1.1,1.5,1.9,2.6,2.6,3.7h.2Z"/>
        <path class="cls-2" d="M670.5,309c-.8-.4-1.3-1-1.8-1-9.2.8-14.2-4.9-18.7-11.6-5-7.4-10.1-14.8-15.5-22.7-3.6-4.4-6.9-8.2-10.2-12-2.2-2-4.5-3.9-7.1-5.9-2-1.6-3.5-3.3-5.1-5.4,0-1.8.2-3.3.4-4.8.2-1.9.5-3.8.8-6.1,3,4.9,5.1,9,7.8,12.6,10.1,13.4,20.5,26.5,30.4,40,5.1,6.9,9.8,13.5,19.6,13,1,0,2.1.7,3.6,1.1-1,1-2.5,1.9-4.3,2.8h0Z"/>
        <path class="cls-14" d="M1053.1,17.9c-1.6-7.3-1.1-7.9,6.9-7.9h15.1c-.5,5.6-2.9,10.8-7.4,12.6-4.9,2-10.4.3-14.3-4.8h-.3ZM159,10c4,.4,7.6.8,11.6,1.3-2.7,6.4-4.7,11.9-11.7,11.8-7.9,0-9.4-7-13.3-13.1h13.4Z"/>
        <path class="cls-10" d="M1063.1,169.1c-4.8,1.8-9.1,4.2-14.1,2-3.8-1.7-3.8-4.2-1.9-7.2,3.3-5.2,15.9-6.9,20.7-2.7.8.7.9,3.2.3,4.1-1.1,1.5-3,2.5-5,3.8h0Z"/>
        <path class="cls-14" d="M167.5,171.9c-3.9-1.5-7.5-2.7-10.8-4.6-1.4-.8-2.1-3-3.1-4.6,1.4-.9,2.8-2.5,4.3-2.6,4.4-.3,9-.9,13,.4,2.2.7,4.8,5,4.7,7.5-.2,3.7-4.1,4.5-8.2,3.9h.1Z"/>
        <path class="cls-11" d="M515.1,268c0,8.1.2,16.3.3,24.4,0,7.2-.3,14.5,10.5,15.1l-.9,1.2c-2.7.3-5.3.4-7.9.8-2.4.4-4.7,1.3-7,1.4-1.6,0-3.2-1-4.8-1.5,1-1,2.1-1.9,2.9-3,1.7-2.4,4.7-4.9,4.7-7.4.2-11.8-.3-23.6-.7-35.4,0-.6-.6-1.2-1-2.2q0-.4.3-.5c1.8,1.6,3.2,3.3,4.4,5.2-.4.7-.6,1.3-.7,1.8h0Z"/>
        <path class="cls-13" d="M843.2,255.8c.4,0,.9,0,1.9.3,5.3.2,10,0,14.8-.2,2.4,1.2,2.2,2.4-.2,3.1-5.3,1.5-6.4,5.1-6.2,10.1.2,8.1,0,16.3,0,24.4s-2.1,9.6-6.6,12.9c-.5-.1-.7-.3-1.1-.9,4.1-3.7,5.1-8.5,5.2-13.6,0-6.7,0-13.3.3-20.6,0-1.2-.6-1.7-1-2.3-.2-2.8-.3-5.6-.5-8-2.9-1.1-5.7-2.2-8-3.6.7-.8,1.1-1.2,1.4-1.6h0Z"/>
        <path class="cls-19" d="M724.5,228c2.4.4,5,1,8.4,1.9.9,1.2,1.2,2.1,1.1,3.3-.5.9-.8,1.5-.8,2.2-.2,21.9-.4,43.7-.5,65.6,0,.5.7,1,1.1,1.8-.5.9-1.1,1.5-1.6,2.2-.5-.3-1-.5-1.7-.9.4-4.3,1.5-8.6,1.6-12.8,0-18.2-.3-36.5-.3-54.7s-1.8-7.9-7.2-8.6h0Z"/>
        <path class="cls-3" d="M387.1,255.2c4.2-.1,8.4-.4,12.5-.2,1,0,2.5,1.8,2.7,2.9.7,3.4,1,6.9,1.2,10.3,0,1.1-.5,2.3-.8,3.5-1.1-.7-2.7-1.1-3.3-2.2-3-5.3-6.3-10.2-12.8-12.4,0-.9.2-1.4.5-2h0Z"/>
        <path class="cls-12" d="M458.8,258.1c-.5,1.6-1.3,3.2-2.7,5-.7.5-.8.8-.9,1.1h-.3c-.4.4-.5.7-.7,1.1h-.3c-10.3,12.5-9.7,25.8,1.3,38.9-.3.4-.5.5-.6.7-14.7-11.3-12.6-36.2,4.3-46.6v-.2Z"/>
        <path class="cls-19" d="M554.9,264.8c-1,.3-1.9.4-3.1.4-2.4-2-4.5-4-6.5-6-.9-.9-1.8-2-3.6-3.9h21.4c-1.5,2-2.3,3.3-3.3,4.4-1.5,1.7-3.1,3.2-4.9,5.1h0Z"/>
        <path class="cls-6" d="M369.8,275.2c5.8,4.9,12.5,7,19.8,8,5.6.8,11.2,1.8,13.7,8.6-1.5-.1-2.9-.9-4.2-1.7v-.4c-.2-.4-.6-.5-1-.6v-.4c-3.3-.8-6.7-1.2-10-1.7-3.4-.8-7.4-.7-10.2-2.6-3.3-2.2-5.6-6-8.1-9.3h0Z"/>
        <path class="cls-3" d="M344.1,284.4c-.4-1.4-.7-2.5-1-4,1.6-2.7,3.1-5,4.7-7.4l1.5-2.1c.6.8,1.6,1.6,1.7,2.4.2,5.6.2,11.2,0,16.8,0,.8-.9,1.6-1.5,2.5-2-3-3.6-5.5-5.5-8.3h0Z"/>
        <path class="cls-12" d="M423.3,306.8c-.6-.2-1.2-.5-2.1-.8-.3-15.1-.2-30-.2-45.4.5-.7,1-1.1,1.9-1,.5,2.7.9,5,1,7.3.2,12.8.2,25.6.3,38.3h-.3c-.4.6-.5,1.1-.6,1.7h0Z"/>
        <path class="cls-19" d="M873,260.6c0-.5.3-.5,1.2-.2.8,1.1,1.3,1.9,1.3,2.7v39.8c0,1.1-.7,2.1-1.1,3.2-.3,0-.5,0-1.2-.2,0-4.5.4-9,.4-13.4,0-10.5-.3-20.9-.6-31.8h0Z"/>
        <path class="cls-12" d="M903.8,261.6c.2-.5.4-.6,1.1-.3.7,11.1.9,21.8.9,32.5s-.4,7.5-.7,11.3c-.2-.3-.5-.5-.9-.9-.3-14.1-.4-28.1-.5-42.5h.1Z"/>
        <path class="cls-19" d="M321.2,263.4c.3-.7.5-1,1.2-1.1.5,14.3.6,28.6.7,42.8l-.2-.2c-.4,0-.6,0-.7.2-.2-.3-.3-.6-.7-1-.2-13.5-.3-26.9-.2-40.7h0ZM603.2,297.8c-.3.6-.6,1.1-1,2-6-6.6-4.7-13.7-.7-21.1.6.2.9.6,1.4,1.5-2.6,6.2-1.8,11.9.3,17.5h0Z"/>
        <path class="cls-3" d="M812.1,262.5c.2,10.5.3,21,.3,32.2,0,1.1,0,1.5-.2,1.9,0,.4-.2.7-.6,1.6-.4-10.5-.7-21.6-.8-32.6,0-3.7-1.2-6.1-5.5-6.6,1.5-.3,3.4-.3,5.5,0,.5.6.8.8,1.1,1.4v2.1h.2Z"/>
        <path class="cls-19" d="M891.8,256.7c-8.2.4-16.4.4-25,.4,0-.5.4-1.5.8-1.6,7.8-.1,15.6-.2,23.4-.2s.6.6.8,1.4ZM555.8,305.6c-.6-1.6-1.4-3.6-1.5-5.7-.2-3.7,0-7.5.4-11.5.6,5.4.9,11.1,1.2,17.2h-.1Z"/>
        <path class="cls-9" d="M485.1,290.5c.6,0,1.4-.3,1.7,0,3.2,3.4,1.7,12.5-2.5,14.7,0-.8,0-1-.1-1.2h.4c.5-4.6.6-9,.7-13.4h-.2Z"/>
        <path class="cls-12" d="M386.8,254.9c0,.7-.2,1.3-.5,2-2.3.6-4.6,1-7.4,1.5-.5-.3-.6-.7-.8-1.6,2.7-1.1,5.5-1.6,8.7-1.8h0Z"/>
        <path class="cls-6" d="M1161.5,35.8c-1-.9-1.8-2-2.6-3.4,0-1.4.2-2.5.3-4.1,2.2,1,4.4,2.6,6.7,4.4-1.3,1.2-2.7,2.1-4.4,3.1Z"/>
        <path class="cls-19" d="M859.5,255.7c-4.4.4-9.1.6-14.1.5,4.4-.4,9.1-.5,14.1-.5h0Z"/>
        <path class="cls-11" d="M758.6,311c1.5-.7,3.5-1.7,5.5-1.9,2.4-.2,4.9.2,7.5.7-.2.5-.4.8-.5,1.1-4,0-8.1.1-12.6,0h0Z"/>
        <path class="cls-12" d="M398.9,290.5c1.5.4,2.9,1.2,4.4,1.7,2.5,2.4,1.2,4.3-1.4,6-1.3-2.4-2.2-4.9-3-7.7Z"/>
        <path class="cls-11" d="M734.6,311c3.3-3.6,7.3-2.3,11.4-.4-3.6.4-7.3.5-11.4.4Z"/>
        <path class="cls-19" d="M484.6,290.5c.4,4.4.3,8.9-.2,13.4-.4-4.4-.3-8.9.2-13.4Z"/>
        <path class="cls-3" d="M810.7,255.3c-2,.6-4.4,1.2-7.3,1.7,2-.6,4.4-1.2,7.3-1.7Z"/>
        <path class="cls-12" d="M388.5,287c2.9.4,6.3.8,9.6,1.7-3.1-.3-6.1-1-9.6-1.7ZM535.9,291.2c-1.8-2-3.5-4.1-5.2-6.6.3-.6.5-.7.9-.7,1.9,2.2,3.6,4.3,5,6.5l-.7.7h0Z"/>
        <path class="cls-6" d="M1190.2,43.7c2.1,0,4.3.5,6.8,1.1-2,0-4.3-.4-6.8-1.1Z"/>
        <path class="cls-11" d="M721.1,310c2.3,0,4.5.1,6.9.6-1.9.4-4,.5-6.5.2-.4-.3-.4-.8-.4-.8h0ZM749.5,311c1.5-3.1,3.9-2.5,6.5-.4-1.9.4-4,.5-6.5.4Z"/>
        <path class="cls-12" d="M546.6,303.7c-1.5-1.6-2.9-3.3-4.3-5.5.3-.7.4-.9.8-.8,1.6,1.9,3,3.6,4.1,5.5-.4.4-.5.6-.7.8h.1ZM460.1,307v.7c-1.7-.7-3.5-1.6-5.4-2.8,0-.4,0-.6.7-.8,1-.1,1.4-.2,1.8-.2v.4c.7.4,1.3.5,2,.6l-.2.4c.3.4.8.5,1.2.7v.3c-.1,0-.1.8-.1.8h0Z"/>
        <path class="cls-6" d="M1168.3,35c1.6.5,3.1,1.4,4.8,2.6-1.7,0-4.7,1.7-4.8-2.6ZM1178.1,40.6c1.5.2,3.1.6,4.8,1.4-1.5-.2-3.1-.6-4.8-1.4Z"/>
        <path class="cls-12" d="M551.1,307.1c0,.4,0,.8,0,1.6-1.3-1-2.5-2.3-3.6-4.1.3-.6.5-.7,1-.6,1,1.2,1.7,2.2,2.5,3.2h0Z"/>
        <path class="cls-3" d="M819.8,255.3c-.9.3-2.2.5-3.6.4,1-.4,2.1-.5,3.6-.4Z"/>
        <path class="cls-12" d="M528.6,282.5c-1-1.2-2-2.3-2.9-3.9.3-.5.5-.7.9-.6,1.1,1.4,1.9,2.6,2.6,4l-.5.5h0ZM540.5,296.7c-.8-1-1.6-1.9-2.3-3.4.3-.7.5-.8.8-.8,1,1.2,1.7,2.2,2.2,3.4-.4.4-.6.6-.7.8ZM515.4,267.9c-.2-.5,0-1.1.7-1.7,1.2.7,1.9,1.5,2.4,2.4l-.5.5c-.7-.4-1.5-.9-2.5-1.2h-.1ZM524.6,277.7c-.8-1-1.6-2-2.3-3.5.2-.6.4-.7.7-.6.9,1.2,1.6,2.2,2.2,3.4-.3.4-.4.6-.5.7h-.1Z"/>
        <path class="cls-3" d="M823.3,259.4c.3-.3.9-.6,1.6-.7-.4.4-.9.6-1.6.7Z"/>
        <path class="cls-6" d="M1162.5,39.9c-.5-.4-.7-.9-.8-1.7.4.3.7,1,.8,1.7Z"/>
        <path class="cls-19" d="M843,255.7c-.2.6-.5,1-1.2,1.4,0-.5.6-1,1.2-1.4h0Z"/>
        <path class="cls-6" d="M1186.1,42.7c.5,0,1.1,0,1.8.3-.5,0-1.1,0-1.8-.3Z"/>
        <path class="cls-4" d="M771.5,311c-.3-.4,0-.6.4-.9.9,0,1.6,0,2.6-.1-.6.3-1.6.7-3,1Z"/>
        <path class="cls-11" d="M850.2,269.3c.5.3.9.8,1.1,1.5-.5-.3-.9-.8-1.1-1.5Z"/>
        <path class="cls-19" d="M552.2,293.3c.4.2.4.7.4,1.2-.5,0-1-.2-1.6-.5.2-.3.5-.4,1.1-.7h0Z"/>
        <path class="cls-12" d="M538.1,293c-.8-.3-1.4-.8-2.1-1.5,0-.4.2-.6.8-.8,1,.5,1.5,1.1,2,1.6l-.7.7h0ZM542.2,297.9c-.6,0-1-.4-1.5-1,0-.4.2-.6.8-.9.8.3,1.1.7,1.5,1.1l-.7.7h0Z"/>
        <path class="cls-4" d="M951.3,310.3c.5-.2,1,0,1.6.3-.5.1-1.1,0-1.6-.3Z"/>
        <path class="cls-11" d="M509.6,260.2c0-.3,0-.2.3-.2.6.4.9.7,1.1,1-.5-.2-1-.4-1.4-.9h0Z"/>
        <path class="cls-12" d="M522.2,273.9c-.6-.2-1.1-.6-1.5-1.3.2-.5.4-.6.8-.6.6.5.9,1,1.3,1.4,0,.1-.3.2-.6.5ZM518.7,270.4c-.2-.3-.4-.5-.7-1,0-.3.3-.6.6-.6.6.2.7.5.6,1l-.6.6h.1ZM525.5,278.3c-.5,0-.6,0-.8-.4,0-.3.2-.5.7-.8.7,0,.9.3,1,.7-.2.1-.4.2-.8.5h-.1Z"/>
        <path class="cls-4" d="M897.1,310.3c.3-.2.5,0,.9.4-.2,0-.5,0-.9-.4Z"/>
        <path class="cls-12" d="M520.5,272.4c-.5,0-.7-.2-.8-.8.3-.5.5-.6.8-.6.5.3.6.6.7,1-.2.1-.3.2-.7.5h0Z"/>
        <path class="cls-3" d="M331.6,280.7s-.3-.1-.6-.4c.1,0,.3.1.6.4Z"/>
        <path class="cls-4" d="M983.4,310.9c-.2-.3,0-.6.4-.8,0,.2,0,.5-.4.8ZM933.4,310.9c0-.4,0-.6.6-.3,0,.2-.2.3-.6.3ZM720.9,310c.3,0,.3.4.2.7-.3.1-.6,0-1-.4,0-.3.3-.3.7-.3h0Z"/>
        <path class="cls-6" d="M1157.8,31.1c0,.3-.4.3-.4.3l-.6-.3c.2-.2.5-.2.9,0h0Z"/>
        <path class="cls-12" d="M529.6,283.6c-.3-.2-.5-.5-.9-.9,0-.4,0-.5.7-.7.7,0,.9.3.8.9-.4.4-.5.6-.6.7ZM530.6,284.3c-.5,0-.7-.1-.9-.5,0-.3.2-.5.8-.8.7.1.9.4,1,.7-.2.1-.3.3-.8.6h0ZM397.9,289.5c.5-.3.9-.2,1.2.3-.5.3-.9.2-1.2-.3Z"/>
        <path class="cls-19" d="M483.8,303.8c.4.4.4.6.3,1-.3.2-.5.2-1,.1,0-.5.1-.9.7-1.1Z"/>
        <path class="cls-12" d="M519.6,271.3c-.5,0-.7-.2-.9-.7,0-.3.2-.5.7-.7.7.2.8.5.9.8-.2.1-.3.3-.7.6h0ZM547.5,304.3c-.5,0-.7,0-.8-.4,0-.3.2-.5.8-.8.7.1.8.4.9.7-.2.1-.4.2-.9.5h0Z"/>
        <path class="cls-5" d="M575.8,91c0-19,0-37.5-.5-55.9,0-4.3-2.4-8.5-3.7-12.8,3.9-1.1,9.1,1.3,10.6,6.4,1,3.5,1.5,7.2,1.5,10.8,0,39.3,0,78.6,0,117.9s-.3,6-.8,8.9c-1.1,7.2-4.9,10.5-13.2,11.2,7.5-8.3,5.8-18.1,5.9-27.5,0-19.5,0-39,0-59h.2Z"/>
        <path class="cls-15" d="M675,177.9h-11.6c8.4-5.5,15.7-10.4,24.2-15.9-1.8,5.6-2.7,10.3-4.9,14.4-.8,1.4-4.7,1.1-7.7,1.5Z"/>
        <path class="cls-2" d="M678.6,31.6c-6.4-3.8-12.5-7.3-19.7-11.5,6,0,11-.1,16,0,1.1,0,2.5,1,3.1,2,2.3,3.9,4.4,8,6,12.8-1.7-1.1-3.4-2.1-5.4-3.4h0ZM652.5,89.5c1.3-1.5,2.4-2.7,4.3-4.9v19.3c-4.5-3-9-6-13.6-9,2.9-1.7,6-3.4,9.3-5.4Z"/>
        <path class="cls-5" d="M953.4,154.7c-26.1-30.7-52-61.1-77.9-91.5-9.4-11-18.7-22.1-28.3-32.9-3.5-4-8-7.2-12.5-11.1,8.1-.4,14.8,1.9,19.8,7.7,27.3,31.8,54.6,63.7,81.8,95.6,12.2,14.3,24.2,28.8,36.4,43.1,3.9,4.6,5.3,9.8,4.2,16.3-7.9-9.2-15.5-18.1-23.4-27.2h0ZM851.4,168.6c2.3,3.2,4.5,6,6.8,9.1h-20.2c3.4-4.3,7.2-9.1,11.1-13.9.5,1.1,1.3,2.8,2.3,4.8h0Z"/>
        <path class="cls-15" d="M978,19.9h6.6c-2.9,4.8-5.6,9.4-7.9,13.2-3.7-4-7.8-8.5-12.1-13.2h13.4Z"/>
        <path class="cls-2" d="M232.7,74.3c7.6,12.5,19.2,18,32.5,20.7,14,2.9,28.2,4.9,42,8.6,16.3,4.4,31.5,18.4,29.8,38.5-.5,5.2-2.5,10.2-3.9,15.3-.7-.1-1.4-.3-2-.4l.9-6.9c2.4-23.4-13-35.8-29.7-40-13.7-3.4-27.7-5.6-41.5-8.4-12.5-2.6-22.5-8.9-29.2-19.9-5.5-9-7.4-18.6-5.9-28.9,2.3,7.2,4.6,14.2,7.1,21.5h-.1ZM238.1,166.2c1.4,1.8,2.5,3.3,3.3,4.5-5,2-9.5,3.9-14,5.8v-27.6c3.5,5.7,7,11.4,10.7,17.3Z"/>
        <path class="cls-15" d="M302.8,22.9h12.4c1,5.6,2.2,12.1,3.6,19.7-6.4-7-11.9-13.1-17.4-19.2,0,0,0-.4.2-.4.3-.1.6-.1,1.3-.2h-.1Z"/>
        <path class="cls-5" d="M444.3,47c0,38.8-.2,77.1-.1,115.4,0,6.3-4.8,14.5-10.4,15.5-1.1.2-2.3,0-3.4,0-.1-.4-.4-.9-.3-1,6.8-5.9,6.4-14.1,6.5-21.8.2-43.1,0-86.3,0-129.4v-5.7c5.8,1.7,7.1,5.7,7.4,10.1.4,5.5.2,11,.3,17h0Z"/>
        <path class="cls-15" d="M506.1,19.9c1.6,0,2.8.2,4,0,3.5-.6,5,.7,5.6,4.3.7,4.2,2.2,8.2,3.3,12.2-7.6-5.5-15.2-11-22.8-16.4h9.9Z"/>
        <path class="cls-5" d="M371.8,36c-.7-.2-1.6-.8-1.6-1.1.9-4.9,2-9.7,3-14.7h16.2c-5.5,5-11.4,10.3-17.6,15.9h0Z"/>
        <path class="cls-15" d="M760.2,135v26.5c0,12.1-2.4,14.7-15.2,15.9,8.5-4.3,7.4-12,7.4-19.3V41.1c0-7.5.2-15.1-6.8-20.5,7.9-1.2,13.3,2.5,14.3,9.9.4,3,.3,6,.3,9v95.5Z"/>
        <path class="cls-9" d="M283.6,243.1c-.3-.4-.7-.7-.3-1.6.2-1.2-.5-1.9-1-2.7,0,0,0-.2.3-.4-.4-1-1-1.7-1.7-2.7-.4-1.2-.6-2-.8-2.8,3.2,3,7.6,5.3,9.3,9,8.5,18.2,9.8,36.4-1.7,54.1-2.7,4.2-6.6,7.2-11.5,8.4,3.8-4.6,7.5-9,11.6-14.1,1.2-3,2-5.4,3-8.2,1.9-11.4,2.5-22.4-1.8-33.4-1-2.3-2-4.3-3.1-6.3,0-.1-1.4.5-2.2.7h0Z"/>
        <path class="cls-15" d="M230.5,302.8c-1.3,1.4-2.4,2.5-3.5,3.5v-77.4c.3-.2.7-.5,1-.7,1.1,1.8,3.1,3.7,3.1,5.5.2,22.6,0,45.2,0,67.8s-.3.6-.6,1.3Z"/>
        <path class="cls-19" d="M280.1,232.9c.2.8.5,1.6.6,2.9-.5,1-1,1.5-1.5,2-6.4-5.8-14-8.5-22.8-9.5,4.4.6,9.2,1.3,13.9,2.1,1.8.3,3.4,1.1,5.9,1.8,1.8.3,2.9.6,3.9.8h0ZM290.6,282.3c-.8,2.4-1.6,4.8-2.7,7.5-1,.2-1.8.2-3,.2.8-3.5,2-6.9,3.6-10.4,1,.9,1.5,1.8,2,2.7h.1Z"/>
        <path class="cls-9" d="M280.1,232.6c-1,.1-2-.1-3.4-.5.9,0,2.1,0,3.4.5Z"/>
        <path class="cls-19" d="M248.9,227.6c-.4.4-.9.6-1.6.7.4-.4.9-.6,1.6-.7Z"/>
        <path class="cls-2" d="M732.1,305.4c.6-1,1.1-1.6,1.8-2.9.4-2.7.7-4.6.7-6.6v-51.5c0-3.8-.3-7.6-.4-11.4-.3-1-.5-1.9-1-3,.3-.6.9-1.1,1.4-1.5,1.2,2.4,3.4,4.7,3.5,7.1.3,20.9.2,41.8,0,62.7,0,4-1,7.5-6,7.2h0Z"/>
        <path class="cls-9" d="M777.5,239.1c-.3-.4-.5-.8,0-1.2.6-1,.6-1.9.3-3.3-1-.5-1.8-.5-2.7-.5h.2c.2-.9.3-1.8.4-3.4,0-.8.3-.8.5-.8,8.7,3.4,10.5,21.4,3.3,29.1-1.5,1.6-1.6,1.5-3.1-.9-.4-.2-.3-.2,0,.1,5-5.2,3.8-11.8,3.3-18.2,0-.4-1.4-.6-2.1-.9h0Z"/>
        <path class="cls-2" d="M785.4,284.3c.3,11.4-1.9,16.7-7.8,19.3,5.9-11.7,6.9-22.8-1.8-33.2,4.7-.1,8.5,5.1,9.6,13.8h0Z"/>
        <path class="cls-3" d="M776.1,229.6c0,.3-.3.3-.8.3,0-.4,0-.8.2-1.3.2.2.4.5.6.9h0ZM775,233.5c.3.6,0,.5,0,.5-.4-.4-.9-.8-1.4-1.4.3,0,.7.1,1.3.9h.1Z"/>
        <path class="cls-2" d="M776.5,304c.7-.3,1.1-.2,1.5-.2,0,.4-.3.8-.4,1.1-.5-.2-.9-.4-1.1-.9Z"/>
        <path class="cls-3" d="M773.6,228.4v.2c0,0-.1-.1,0-.2Z"/>
        <path class="cls-9" d="M629.2,226.1c7.7-1.2,13.9,5.8,12.6,15-1.6-2.4-3-4.5-4.6-6.2-.3.3-.3.2,0,0-2.4-3.1-5.3-5.9-8.1-8.8Z"/>
        <path class="cls-6" d="M671.1,257.4c-1.6,2.1-3.1,3.8-5,6-1.2-2.9-2-4.7-3.3-7.7,3.3.5,5.9.9,8.3,1.7Z"/>
        <path class="cls-19" d="M628.9,226.2c3.2,2.7,6,5.6,8.5,8.7-3.1-1.7-5.9-3.6-9-5.7,0-1.1,0-2,.5-3Z"/>
        <path class="cls-6" d="M999.1,288.2v-8.2c1.2-6.8-1.9-11.4-5-15.9,1.3.7,3.3,1.1,3.8,2.3,5.6,11,6.5,22.2,0,33.2-1.3,2.3-3.8,4-5.8,6l-.9-.9c.6-.7,1.2-1.4,1.7-2.4q0-.3.3-.2c.4-.3.6-.7.7-1.1,0,0,0,.1.3,0,.4-.7.5-1.4.6-2l.4.2c1.4-3.6,2.5-7.2,3.6-10.9h.2Z"/>
        <path class="cls-16" d="M962.5,269.1c-.3,12.7.7,24.9-.6,37.1h-1.6v-46.1c.5,0,.9,0,1.4-.1.2,2.9.5,5.8.7,9.2h0Z"/>
        <path class="cls-12" d="M994,263.8c3.2,4.8,6.3,9.4,5.1,15.7-.9-2.2-1.5-5.1-2.8-7.5-1.6-3-3.9-5.6-6.1-8.6.5-1.1,1.1-2,2-3.1.6,1.2,1.1,2.2,1.8,3.5Z"/>
        <path class="cls-16" d="M323.5,305.3c-.5-14.4-.6-28.7-1-43.2,0-.9.4-1.4.8-2,.6,1.3,1.7,2.5,1.7,3.8.1,12.8.1,25.6,0,38.4,0,1-.7,2.1-1.5,2.9h0ZM322.2,305.4c.1-.4.3-.5.7-.5.2.5.2,1,.2,1.4-.3-.2-.6-.4-.9-.9h0Z"/>
        <path class="cls-6" d="M457.4,303.6c-.6.3-1,.4-1.8.3-11.5-13-12.1-26.3-1.7-38.8.2.8.2,1.7-.1,2.4-7.5,13.2-6.4,23.6,3.7,36.1h-.1ZM459.1,304.6c-.5.3-1.2.2-1.9-.3.6-.3,1.2-.2,1.9.3ZM455.5,264.2c-.2-.4,0-.7.3-1.1.2.4.1.8-.3,1.1ZM454.6,265.3c-.2-.5-.1-.9.3-1.2.2.5.1.9-.3,1.2ZM460.4,306.9c-.3-.1-.3-.3-.3-.8.2,0,.4.4.3.8ZM460.3,305.6c-.5.2-1,0-1.3-.4.6-.2,1,0,1.3.4Z"/>
        <path class="cls-9" d="M603.4,298.1c-2.3-5.9-3.1-11.6-.2-17.6,2.1-.7,2.2-.7,1.6,1.6-1.7,6.8,0,13,4.6,17.8,3,3.1,7.1,5.1,11.2,7.9-7.5-.5-13.8-2.1-17.3-9.7h.1Z"/>
        <path class="cls-3" d="M633.1,275c-3.3-3.3-6.4-6.9-9.8-10.8,0-.8.4-1.4.8-2.2,3.4,3.5,6.7,7.4,10.1,11.5-.3.6-.6.9-1.2,1.5h.1Z"/>
        <path class="cls-9" d="M905.2,305.4c.2-4.1.6-7.8.6-11.6,0-10.7-.2-21.4-.6-32.5.5-.4,1.7-.5,1.7-.3.4,2.4,1,4.8,1,7.2,0,11,0,21.9,0,32.9,0,1.8-1.4,3.6-2.2,5.3,0,0-.3-.1-.4-.2,0-.1,0-.3-.2-.8h.1Z"/>
        <path class="cls-16" d="M812.5,296.9c-.2-.7-.2-1.1-.3-1.8,1.3-.3,1.8.9,1.5,3.4h-.4c-.2-.4-.4-.9-.8-1.6ZM812.4,262.8c-.3-.9-.3-1.4,0-2.4.4-.4.6-.4.8-.5,0,1.1-.2,2.1-.7,2.9h0Z"/>
        <path class="cls-2" d="M813.1,259.7c0,.3-.3.3-.7.4-.5-.2-.8-.3-1.2-.7.5-.1,1.2,0,1.9.4h0Z"/>
        <path class="cls-6" d="M548.6,303.9c-.4-.5-.5-.8-1-1.1-1.6-1.8-2.9-3.5-4.5-5.4-.6-.6-.9-1.1-1.4-1.6-1-1.1-1.7-2.1-2.7-3.3-.7-.8-1.2-1.3-2-2.1-1.9-2.2-3.5-4.3-5.4-6.5-.4-.5-.5-.8-1-1.1-.3-.4-.5-.7-1.1-.9-1.1-1.3-1.9-2.5-3-3.9-.4-.5-.5-.8-1-1.1-.9-1.1-1.7-2.1-2.6-3.3-.5-.7-.9-1.1-1.5-1.6-.3-.5-.5-.7-1-1.1-.3-.5-.4-.7-.9-1.1-.3-.4-.5-.7-.9-1.1-.8-.9-1.5-1.7-2.4-2.6-1.7-1.8-3.2-3.5-4.9-5.1-.6-.3-.9-.6-1.5-.9,2.4-2.7,4.3-.4,5.8,1.4,11.7,13.7,23.4,27.5,34.9,41.3.9,1,.9,2.8.9,4.3-1.1-.9-1.9-1.9-2.9-3.1h.1Z"/>
        <path class="cls-9" d="M424.6,305.3c-.5-13-.6-25.8-.8-38.5,0-2.3-.4-4.6-.6-7.3.9,1.2,2.7,2.8,2.7,4.4.2,13.2.1,26.3,0,39.5,0,.7-.6,1.5-1.3,2h0ZM423.6,306.6c-.2-.4,0-1,.3-1.6.2.4,0,.9-.3,1.6Z"/>
        <path class="cls-6" d="M874.6,306.3c.2-1.3.9-2.4.9-3.5v-39.8c0-.8-.4-1.6-.9-2.7,3.9-2,3.3,1.4,3.4,3.4.2,7.3,0,14.6,0,21.9s.2,11-.2,16.4c0,1.6-1.9,3-3.2,4.2h0Z"/>
        <path class="cls-17" d="M733.9,233.2c.5,3.5.8,7.3.8,11.1v51.5c0,2-.4,3.9-.8,6.3-.6-.1-1.3-.6-1.3-1.1,0-21.9.3-43.7.5-65.6,0-.6.3-1.3.8-2.2h0Z"/>
        <path class="cls-13" d="M290.7,282c-.7-.5-1.2-1.4-1.9-2.6-.3-.7-.3-1.2,0-2,.5-1.4.6-2.3.7-3.3,0-3.6,0-7.2.2-11.4-.2-1.7-.6-2.7-1-3.8,0-.5-.2-.9,0-2,0-2.7-.3-4.8-.4-7.2.4-.5.5-.6.6-.8,4.3,10.7,3.7,21.6,1.8,33h0Z"/>
        <path class="cls-13" d="M283.6,243.5c.8-.6,2.1-1.3,2.2-1.1,1.1,1.9,2.1,3.9,3.1,6.3-.1.5-.3.7-.8,1.1-.8-.1-1.2-.4-1.6-.7-.9-1.7-1.9-3.4-2.8-5.5h-.1Z"/>
        <path class="cls-19" d="M286.4,249.4c.4-.1.8.2,1.4.6.5,2.2.8,4.3.9,6.7-.9-2.1-1.7-4.5-2.4-7.2h.1Z"/>
        <path class="cls-13" d="M279.3,238c.4-.8.8-1.3,1.5-1.9.8.6,1.4,1.3,1.4,2.4-1.1.4-1.6.4-2,.5-.3-.2-.6-.5-.9-1Z"/>
        <path class="cls-19" d="M289.3,274.3c.1.7,0,1.7-.4,2.7-.1-.8,0-1.6.4-2.7ZM288.6,259.2c.5.7,1,1.7,1.2,3.1-.6-.7-1-1.7-1.2-3.1ZM280.3,239.2c.4-.3.9-.4,1.8-.5.4,0,.3,0,.2.4-.2.9-.2,1.4-.2,1.9-.6-.5-1.1-1.1-1.8-1.9h0Z"/>
        <path class="cls-13" d="M282.2,241.4c-.1-.8,0-1.3,0-2.2.7.4,1.3,1.1,1.3,2.1-.8.3-1,.3-1.4.1h.1Z"/>
        <path class="cls-17" d="M777.4,239.4c.8,0,2.2.2,2.2.6.5,6.4,1.7,12.9-3.3,18.2,0-6.3.5-12.4,1.1-18.8h0Z"/>
        <path class="cls-3" d="M775,234.3c.9-.2,1.7-.2,2.3.3-.7.4-1.2.5-1.8.5s-.5-.3-.6-.8h0Z"/>
        <path class="cls-17" d="M775.7,235.4c.4-.4.9-.4,1.8-.4.4.9.5,1.9,0,2.6-.9-.7-1.3-1.3-1.8-2.2h0Z"/>
        <path class="cls-19" d="M998.7,288.3c-.7,3.6-1.8,7.3-3.3,10.8.7-3.7,1.8-7.2,3.3-10.8Z"/>
        <path class="cls-11" d="M994.7,299c.3.6.2,1.3-.3,2-.3-.6-.2-1.3.3-2ZM993.7,300.7c.3.6,0,.9-.4,1.3-.2-.5,0-1,.4-1.3Z"/>
      </g>
    </g>
  </g>
</svg>