<svg xmlns="http://www.w3.org/2000/svg" version="1.1" xmlns:xlink="http://www.w3.org/1999/xlink" width="512" height="512" x="0" y="0" viewBox="0 0 32 32" style="enable-background:new 0 0 512 512" xml:space="preserve" class=""><g transform="matrix(-1,1.2246467991473532e-16,-1.2246467991473532e-16,-1,32,32.000003814697266)"><path d="M12 4H3C1.346 4 0 5.346 0 7v9c0 1.654 1.346 3 3 3h4.037l-1.518 7.81A1 1 0 0 0 6.5 28h3.24c.87 0 1.642-.569 1.906-1.393l2.91-6.905c.017-.04.031-.08.043-.12.266-.959.401-1.95.401-2.945V7c0-1.654-1.346-3-3-3zM29 4h-9c-1.654 0-3 1.346-3 3v9c0 1.654 1.346 3 3 3h4.037l-1.518 7.81A.997.997 0 0 0 23.5 28h3.24c.87 0 1.643-.569 1.905-1.393l2.912-6.905c.016-.04.03-.08.042-.121.266-.959.401-1.95.401-2.944V7c0-1.654-1.346-3-3-3z" fill="#5fb8f4" opacity="1" data-original="#000000" class=""></path></g></svg>