<svg width="389" height="37" viewBox="0 0 389 37" fill="none" xmlns="http://www.w3.org/2000/svg">
<path d="M1.5 17.5H0.5V19.5H1.5V17.5ZM101.5 19.5C102.052 19.5 102.5 19.0523 102.5 18.5C102.5 17.9477 102.052 17.5 101.5 17.5V19.5ZM1.5 19.5H101.5V17.5H1.5V19.5Z" fill="#025B97"/>
<path d="M124.909 26L119.887 10.872H118.089V8.268H125.591V10.872H123.7L126.583 20.389L130.582 8.702H133.279L137.247 20.389L140.192 10.872H138.146V8.268H145.338V10.872H143.509L138.673 26H135.79L131.791 14.654L127.823 26H124.909ZM153.584 26.341C152.2 26.341 150.98 26.0827 149.926 25.566C148.872 25.0287 148.046 24.2743 147.446 23.303C146.847 22.3317 146.547 21.1743 146.547 19.831C146.547 18.529 146.837 17.3923 147.415 16.421C147.994 15.4497 148.779 14.6953 149.771 14.158C150.784 13.6207 151.921 13.352 153.181 13.352C154.463 13.352 155.558 13.6207 156.467 14.158C157.397 14.6953 158.1 15.4393 158.575 16.39C159.071 17.3407 159.319 18.4463 159.319 19.707V20.482H148.903L148.934 18.715H155.785C155.785 18.095 155.672 17.5783 155.444 17.165C155.238 16.731 154.928 16.4107 154.514 16.204C154.122 15.9767 153.657 15.863 153.119 15.863C152.499 15.863 151.962 16.0077 151.507 16.297C151.073 16.5863 150.732 17.01 150.484 17.568C150.236 18.1053 150.112 18.7667 150.112 19.552C150.112 20.3993 150.278 21.1227 150.608 21.722C150.939 22.3007 151.383 22.745 151.941 23.055C152.52 23.365 153.192 23.52 153.956 23.52C154.742 23.52 155.486 23.3753 156.188 23.086C156.912 22.7967 157.542 22.4143 158.079 21.939L159.164 24.202C158.524 24.822 157.728 25.3387 156.777 25.752C155.847 26.1447 154.783 26.341 153.584 26.341ZM160.715 26V23.675H162.544V10.252H160.746V7.958H166.264V23.675H167.969V26H160.715ZM175.983 26.31C174.64 26.31 173.452 26.031 172.418 25.473C171.385 24.915 170.569 24.14 169.969 23.148C169.391 22.156 169.101 21.009 169.101 19.707C169.101 18.4257 169.37 17.3097 169.907 16.359C170.465 15.4083 171.209 14.6747 172.139 14.158C173.09 13.6207 174.154 13.352 175.332 13.352C176.49 13.352 177.43 13.6 178.153 14.096C178.897 14.5713 179.404 15.1913 179.672 15.956H178.959V13.631H181.594V18.498H179.176C179.052 17.692 178.732 17.0617 178.215 16.607C177.699 16.1523 177.006 15.925 176.138 15.925C175.436 15.925 174.826 16.08 174.309 16.39C173.813 16.6793 173.421 17.103 173.131 17.661C172.842 18.1983 172.697 18.8287 172.697 19.552C172.697 20.3373 172.863 21.0297 173.193 21.629C173.524 22.2077 173.968 22.6623 174.526 22.993C175.105 23.3237 175.777 23.489 176.541 23.489C177.43 23.489 178.195 23.334 178.835 23.024C179.497 22.6933 180.086 22.28 180.602 21.784L181.78 24.016C181.098 24.7187 180.282 25.2767 179.331 25.69C178.381 26.1033 177.265 26.31 175.983 26.31ZM190.148 26.341C188.805 26.341 187.617 26.0723 186.583 25.535C185.571 24.9977 184.785 24.2433 184.227 23.272C183.669 22.28 183.39 21.133 183.39 19.831C183.39 18.5083 183.669 17.3717 184.227 16.421C184.785 15.4497 185.571 14.6953 186.583 14.158C187.617 13.6207 188.805 13.352 190.148 13.352C191.512 13.352 192.701 13.6207 193.713 14.158C194.747 14.6953 195.542 15.4497 196.1 16.421C196.679 17.3717 196.968 18.498 196.968 19.8C196.968 21.102 196.679 22.249 196.1 23.241C195.542 24.2123 194.747 24.977 193.713 25.535C192.701 26.0723 191.512 26.341 190.148 26.341ZM190.148 23.489C190.81 23.489 191.378 23.3443 191.853 23.055C192.349 22.745 192.732 22.3213 193 21.784C193.269 21.226 193.403 20.5647 193.403 19.8C193.403 19.056 193.269 18.4153 193 17.878C192.732 17.3407 192.349 16.9273 191.853 16.638C191.378 16.3487 190.81 16.204 190.148 16.204C189.508 16.204 188.95 16.3487 188.474 16.638C187.999 16.9273 187.627 17.351 187.358 17.909C187.09 18.4463 186.955 19.087 186.955 19.831C186.955 20.575 187.09 21.226 187.358 21.784C187.627 22.3213 187.999 22.745 188.474 23.055C188.95 23.3443 189.508 23.489 190.148 23.489ZM198.192 26V23.675H200.083V15.987H198.223V13.662H203.617L203.679 15.181L202.656 15.553C203.503 14.8917 204.361 14.3647 205.229 13.972C206.117 13.5587 207.027 13.352 207.957 13.352C209.3 13.352 210.323 13.7653 211.026 14.592C211.749 15.4187 212.111 16.4313 212.111 17.63V23.675H213.94V26H206.779V23.675H208.36V18.219C208.36 17.5163 208.184 16.9687 207.833 16.576C207.502 16.1833 207.037 15.987 206.438 15.987C205.9 15.987 205.322 16.1213 204.702 16.39C204.082 16.638 203.482 16.979 202.904 17.413L203.834 15.894V23.675H205.508V26H198.192ZM215.242 26V23.675H216.823V18.219C216.823 17.5163 216.657 16.9687 216.327 16.576C215.996 16.1833 215.531 15.987 214.932 15.987C214.374 15.987 213.805 16.111 213.227 16.359C212.648 16.5863 212.1 16.9067 211.584 17.32L211.057 15.584C211.925 14.9227 212.793 14.3853 213.661 13.972C214.529 13.5587 215.459 13.352 216.451 13.352C217.691 13.352 218.683 13.7447 219.427 14.53C220.191 15.2947 220.574 16.3177 220.574 17.599V23.675H222.403V26H215.242ZM230.267 26.341C228.882 26.341 227.663 26.0827 226.609 25.566C225.555 25.0287 224.728 24.2743 224.129 23.303C223.53 22.3317 223.23 21.1743 223.23 19.831C223.23 18.529 223.519 17.3923 224.098 16.421C224.677 15.4497 225.462 14.6953 226.454 14.158C227.467 13.6207 228.603 13.352 229.864 13.352C231.145 13.352 232.241 13.6207 233.15 14.158C234.08 14.6953 234.783 15.4393 235.258 16.39C235.754 17.3407 236.002 18.4463 236.002 19.707V20.482H225.586L225.617 18.715H232.468C232.468 18.095 232.354 17.5783 232.127 17.165C231.92 16.731 231.61 16.4107 231.197 16.204C230.804 15.9767 230.339 15.863 229.802 15.863C229.182 15.863 228.645 16.0077 228.19 16.297C227.756 16.5863 227.415 17.01 227.167 17.568C226.919 18.1053 226.795 18.7667 226.795 19.552C226.795 20.3993 226.96 21.1227 227.291 21.722C227.622 22.3007 228.066 22.745 228.624 23.055C229.203 23.365 229.874 23.52 230.639 23.52C231.424 23.52 232.168 23.3753 232.871 23.086C233.594 22.7967 234.225 22.4143 234.762 21.939L235.847 24.202C235.206 24.822 234.411 25.3387 233.46 25.752C232.53 26.1447 231.466 26.341 230.267 26.341ZM252.511 26C251.271 26 250.32 25.7107 249.659 25.132C249.018 24.5327 248.698 23.6027 248.698 22.342V15.987H246.962V13.662H248.667V9.601L252.449 8.795V13.662H255.394V15.987H252.449V21.784C252.449 22.466 252.562 22.9413 252.79 23.21C253.017 23.4787 253.41 23.613 253.968 23.613H255.549V26H252.511ZM263.713 26.341C262.369 26.341 261.181 26.0723 260.148 25.535C259.135 24.9977 258.35 24.2433 257.792 23.272C257.234 22.28 256.955 21.133 256.955 19.831C256.955 18.5083 257.234 17.3717 257.792 16.421C258.35 15.4497 259.135 14.6953 260.148 14.158C261.181 13.6207 262.369 13.352 263.713 13.352C265.077 13.352 266.265 13.6207 267.278 14.158C268.311 14.6953 269.107 15.4497 269.665 16.421C270.243 17.3717 270.533 18.498 270.533 19.8C270.533 21.102 270.243 22.249 269.665 23.241C269.107 24.2123 268.311 24.977 267.278 25.535C266.265 26.0723 265.077 26.341 263.713 26.341ZM263.713 23.489C264.374 23.489 264.942 23.3443 265.418 23.055C265.914 22.745 266.296 22.3213 266.565 21.784C266.833 21.226 266.968 20.5647 266.968 19.8C266.968 19.056 266.833 18.4153 266.565 17.878C266.296 17.3407 265.914 16.9273 265.418 16.638C264.942 16.3487 264.374 16.204 263.713 16.204C263.072 16.204 262.514 16.3487 262.039 16.638C261.563 16.9273 261.191 17.351 260.923 17.909C260.654 18.4463 260.52 19.087 260.52 19.831C260.52 20.575 260.654 21.226 260.923 21.784C261.191 22.3213 261.563 22.745 262.039 23.055C262.514 23.3443 263.072 23.489 263.713 23.489Z" fill="#FAFBFC"/>
<path d="M287.5 17.5H286.5V19.5H287.5V17.5ZM387.5 19.5C388.052 19.5 388.5 19.0523 388.5 18.5C388.5 17.9477 388.052 17.5 387.5 17.5V19.5ZM287.5 19.5H387.5V17.5H287.5V19.5Z" fill="#025B97"/>
</svg>
